<svg id="svg" xmlns="http://www.w3.org/2000/svg" xmlns:xlink="http://www.w3.org/1999/xlink" width="400" height="400" viewBox="0, 0, 400,400"><g id="svgg"><path id="path0" d="M217.798 52.306 C 216.475 53.272,213.634 58.381,212.183 62.400 C 208.752 71.909,208.785 85.148,212.264 94.497 C 213.363 97.449,213.897 97.940,218.800 100.502 C 219.790 101.020,221.675 102.046,222.989 102.783 C 224.303 103.520,226.463 104.694,227.789 105.393 C 231.075 107.124,236.340 109.992,237.800 110.848 C 238.460 111.234,239.810 111.976,240.800 112.497 C 241.790 113.017,243.675 114.046,244.989 114.783 C 246.303 115.520,248.463 116.703,249.789 117.412 C 256.562 121.032,258.704 122.194,259.800 122.841 C 260.460 123.231,261.810 123.976,262.800 124.496 C 263.790 125.016,265.500 125.952,266.600 126.576 C 267.700 127.200,270.040 128.473,271.800 129.405 C 273.560 130.337,275.687 131.486,276.526 131.958 C 277.365 132.429,278.248 132.694,278.488 132.546 C 278.733 132.394,278.810 132.460,278.664 132.696 C 278.422 133.088,279.533 133.800,279.866 133.467 C 279.993 133.340,268.960 118.342,266.864 115.792 C 266.499 115.348,265.399 113.908,264.419 112.592 C 263.439 111.276,262.404 109.962,262.119 109.671 C 261.834 109.381,261.600 109.010,261.600 108.847 C 261.600 108.684,261.285 108.201,260.900 107.774 C 260.515 107.347,259.390 105.918,258.401 104.598 C 257.412 103.279,256.509 102.110,256.396 102.000 C 256.283 101.890,252.687 97.120,248.405 91.400 C 244.123 85.680,240.436 80.781,240.210 80.514 C 239.410 79.566,238.961 78.966,236.827 76.000 C 235.640 74.350,234.552 72.910,234.409 72.800 C 234.266 72.690,233.096 71.160,231.809 69.400 C 230.522 67.640,229.355 66.110,229.216 66.000 C 229.077 65.890,227.864 64.270,226.521 62.400 C 225.178 60.530,223.747 58.616,223.340 58.147 C 222.933 57.678,221.746 56.103,220.702 54.647 C 218.789 51.979,218.531 51.771,217.798 52.306 M134.197 69.900 C 134.066 70.725,133.787 72.155,133.579 73.077 C 132.396 78.312,133.861 91.122,136.409 97.823 C 144.494 119.089,160.976 132.158,184.600 136.036 C 186.903 136.414,188.041 136.603,193.000 137.433 C 194.980 137.765,197.680 138.215,199.000 138.435 C 200.320 138.654,202.840 139.107,204.600 139.441 C 209.163 140.307,211.289 140.685,215.600 141.397 C 217.690 141.742,220.269 142.199,221.331 142.412 C 223.680 142.884,224.401 142.891,223.600 142.432 C 223.270 142.244,222.055 141.962,220.900 141.807 C 219.746 141.652,218.700 141.362,218.577 141.163 C 218.454 140.963,217.564 140.800,216.600 140.800 C 214.576 140.800,213.861 140.151,215.447 139.753 C 216.406 139.512,216.452 139.428,215.863 138.997 C 215.279 138.570,214.887 136.400,215.394 136.400 C 215.501 136.400,217.706 137.423,220.294 138.674 C 222.882 139.924,226.710 141.541,228.800 142.265 L 232.600 143.583 230.600 143.646 C 229.500 143.681,229.050 143.775,229.600 143.856 C 230.150 143.937,231.500 144.171,232.600 144.378 C 233.700 144.584,236.490 145.047,238.800 145.406 C 249.758 147.108,253.111 149.951,253.184 157.600 C 253.204 159.691,253.330 160.418,253.600 160.000 C 255.272 157.412,251.647 147.600,249.019 147.600 C 248.679 147.600,248.400 147.420,248.400 147.200 C 248.400 146.980,248.715 146.800,249.100 146.800 C 250.084 146.801,250.179 132.896,249.201 132.133 C 248.227 131.374,249.085 131.032,250.173 131.746 C 250.723 132.106,251.523 132.400,251.953 132.400 C 252.382 132.400,252.793 132.535,252.867 132.700 C 252.940 132.865,254.530 133.791,256.400 134.758 C 258.270 135.725,260.946 137.129,262.347 137.878 C 263.748 138.627,264.980 139.153,265.086 139.048 C 265.191 138.942,264.495 138.459,263.539 137.974 C 261.421 136.901,257.616 134.842,253.600 132.597 C 251.950 131.675,249.700 130.470,248.600 129.919 C 247.500 129.367,245.970 128.560,245.200 128.124 C 242.786 126.756,239.531 124.981,235.800 122.996 C 233.820 121.943,232.020 120.951,231.800 120.791 C 231.580 120.632,229.510 119.511,227.200 118.301 C 224.890 117.091,222.370 115.747,221.600 115.316 C 218.132 113.371,215.582 111.979,212.800 110.511 C 211.150 109.640,208.990 108.476,208.000 107.924 C 207.010 107.372,204.979 106.257,203.488 105.446 C 201.996 104.636,200.196 103.648,199.488 103.250 C 198.779 102.853,196.220 101.484,193.800 100.207 C 191.380 98.931,189.220 97.759,189.000 97.603 C 188.780 97.447,186.980 96.454,185.000 95.396 C 177.752 91.525,172.084 88.457,170.600 87.600 C 169.328 86.866,167.460 85.854,158.800 81.209 C 155.830 79.616,152.860 77.996,152.200 77.610 C 151.540 77.223,149.779 76.247,148.288 75.440 C 146.796 74.633,144.996 73.650,144.288 73.256 C 143.579 72.862,141.830 71.933,140.400 71.191 C 138.970 70.449,137.322 69.517,136.738 69.121 C 135.094 68.005,134.469 68.196,134.197 69.900 M277.471 131.462 C 277.176 131.757,275.612 130.305,275.835 129.943 C 275.942 129.771,276.398 129.998,276.848 130.448 C 277.298 130.898,277.579 131.355,277.471 131.462 M266.176 139.813 C 266.604 140.136,267.133 140.400,267.353 140.400 C 267.573 140.400,267.404 140.136,266.976 139.813 C 266.549 139.490,266.020 139.225,265.800 139.225 C 265.580 139.225,265.749 139.490,266.176 139.813 M268.000 140.579 C 268.000 140.689,268.540 141.059,269.200 141.400 C 269.860 141.741,270.400 141.931,270.400 141.821 C 270.400 141.711,269.860 141.341,269.200 141.000 C 268.540 140.659,268.000 140.469,268.000 140.579 M225.233 142.947 C 225.700 143.358,228.457 143.616,228.216 143.226 C 228.071 142.991,227.303 142.800,226.510 142.800 C 225.716 142.800,225.142 142.866,225.233 142.947 M285.312 150.385 C 296.893 160.288,278.039 181.888,254.200 186.027 C 253.100 186.218,251.617 186.490,250.905 186.632 C 249.178 186.975,247.869 186.532,248.900 185.953 C 249.883 185.401,249.979 173.200,249.000 173.200 C 248.670 173.200,248.400 172.949,248.400 172.643 C 248.400 172.336,248.670 171.982,249.000 171.855 C 249.330 171.729,249.600 171.349,249.600 171.013 C 249.600 170.676,249.780 170.400,250.000 170.400 C 250.220 170.400,250.400 170.136,250.400 169.814 C 250.400 169.492,250.850 168.422,251.400 167.437 C 251.950 166.452,252.400 165.286,252.400 164.847 C 252.400 164.407,252.580 163.936,252.800 163.800 C 253.020 163.664,253.198 162.888,253.195 162.076 C 253.190 160.792,253.040 161.029,252.041 163.900 C 245.685 182.160,227.225 190.270,212.215 181.396 C 205.620 177.497,196.793 173.375,192.080 171.992 C 187.591 170.676,183.443 169.728,177.800 168.730 C 172.072 167.716,158.365 168.188,152.800 169.590 C 152.030 169.784,150.140 170.242,148.600 170.607 C 134.846 173.871,119.816 183.610,110.338 195.400 C 106.423 200.269,100.000 211.399,100.000 213.312 C 100.000 213.602,99.848 214.011,99.663 214.220 C 99.348 214.575,98.416 217.570,97.615 220.800 C 97.424 221.570,97.051 222.920,96.785 223.800 C 95.924 226.657,95.798 242.083,96.601 246.242 C 98.358 255.335,101.652 263.295,107.011 271.400 C 107.884 272.720,108.689 273.890,108.801 274.000 C 108.913 274.110,109.803 275.280,110.778 276.600 C 112.482 278.906,180.802 347.600,181.391 347.600 C 182.873 347.600,187.242 339.764,188.082 335.600 C 190.596 323.150,188.800 319.939,167.170 298.200 C 150.068 281.013,150.105 281.052,148.338 278.500 C 147.691 277.565,147.082 276.800,146.984 276.800 C 146.699 276.800,149.073 280.518,149.975 281.483 C 150.429 281.969,150.800 282.554,150.800 282.783 C 150.800 283.012,150.980 283.200,151.200 283.200 C 151.420 283.200,151.600 283.380,151.600 283.600 C 151.600 283.820,151.330 284.000,151.000 284.000 C 150.670 284.000,150.396 284.135,150.390 284.300 C 150.385 284.465,149.118 285.950,147.575 287.600 C 146.031 289.250,143.836 291.711,142.697 293.069 L 140.625 295.537 139.498 292.895 C 138.322 290.137,138.082 289.318,136.718 283.400 C 135.678 278.892,135.460 263.675,136.367 259.000 C 137.317 254.104,139.221 246.619,139.617 246.223 C 139.828 246.012,140.000 245.439,140.000 244.949 C 140.000 244.458,140.270 243.787,140.600 243.457 C 140.930 243.127,141.218 242.439,141.240 241.929 C 141.279 241.007,141.282 241.008,141.600 242.000 C 141.894 242.919,141.923 242.930,141.960 242.133 C 142.023 240.775,145.812 232.372,146.500 232.067 C 146.665 231.993,146.800 231.756,146.800 231.540 C 146.800 230.150,154.997 221.722,158.577 219.432 C 163.400 216.347,167.476 214.607,172.800 213.363 C 177.208 212.333,186.679 212.421,191.000 213.534 C 192.760 213.987,194.650 214.468,195.200 214.604 L 196.200 214.850 195.200 214.239 C 194.650 213.903,193.885 213.622,193.500 213.614 C 193.115 213.606,192.800 213.420,192.800 213.200 C 192.800 212.980,192.181 212.800,191.424 212.800 C 189.720 212.800,189.236 212.178,190.661 211.821 C 191.453 211.622,191.602 211.442,191.258 211.098 C 190.736 210.576,190.581 184.392,191.100 184.411 C 192.078 184.447,198.406 190.215,201.800 194.164 C 202.900 195.444,203.992 196.696,204.227 196.946 C 204.812 197.569,209.557 204.210,210.918 206.312 C 213.473 210.256,217.785 218.843,218.595 221.600 C 218.757 222.150,219.117 223.140,219.396 223.800 C 220.451 226.298,221.959 231.940,222.549 235.600 C 223.109 239.078,223.764 248.728,223.329 247.100 C 223.226 246.715,222.954 246.400,222.724 246.400 C 222.470 246.400,222.423 246.753,222.603 247.300 C 223.689 250.604,222.908 264.293,221.548 265.780 C 221.356 265.989,221.200 266.471,221.200 266.851 C 221.200 267.752,218.674 273.248,217.086 275.800 C 214.987 279.175,212.972 281.391,202.379 291.982 C 196.757 297.602,192.046 302.493,191.910 302.851 C 190.968 305.332,205.303 307.932,211.354 306.377 C 215.765 305.243,217.653 304.577,220.600 303.115 C 224.860 301.001,225.043 300.890,227.826 298.741 C 230.663 296.549,234.800 292.075,234.800 291.197 C 234.800 290.979,234.939 290.800,235.109 290.800 C 235.477 290.800,235.510 290.735,241.219 279.000 C 243.681 273.940,247.455 266.200,249.607 261.800 C 253.506 253.824,257.728 245.137,263.603 233.000 C 265.307 229.480,268.676 222.550,271.089 217.600 C 273.502 212.650,275.802 207.908,276.201 207.063 C 276.950 205.476,277.344 205.226,280.400 204.393 C 286.880 202.626,294.819 200.268,298.000 199.166 C 302.384 197.646,311.733 193.945,312.686 193.352 C 313.173 193.048,313.848 192.800,314.186 192.800 C 314.524 192.800,314.800 192.620,314.800 192.400 C 314.800 192.180,314.998 192.000,315.240 192.000 C 316.744 192.000,323.535 187.277,326.345 184.276 C 330.848 179.468,329.057 173.747,321.800 169.761 C 320.968 169.303,316.994 167.144,313.200 165.087 C 311.990 164.431,310.820 163.761,310.600 163.598 C 310.380 163.435,308.310 162.311,306.000 161.101 C 303.690 159.891,301.170 158.547,300.400 158.116 C 298.455 157.025,295.111 155.196,291.800 153.411 C 290.260 152.581,287.830 151.269,286.400 150.497 L 283.800 149.092 285.312 150.385 M81.800 164.259 C 64.406 167.882,63.433 190.368,80.503 194.251 C 94.934 197.533,104.860 179.298,94.359 168.797 C 91.031 165.469,85.532 163.482,81.800 164.259 M322.231 170.900 C 322.559 171.175,323.079 171.625,323.385 171.900 C 323.692 172.175,324.067 172.400,324.218 172.400 C 324.370 172.400,325.227 173.133,326.123 174.029 C 327.856 175.762,328.704 181.427,327.300 181.899 C 327.025 181.991,326.800 182.412,326.800 182.833 C 326.800 183.255,326.530 183.600,326.200 183.600 C 325.870 183.600,325.600 183.793,325.600 184.029 C 325.600 184.495,324.615 185.600,324.200 185.600 C 324.059 185.600,323.692 185.825,323.385 186.100 C 322.062 187.287,321.609 187.600,321.217 187.600 C 320.228 187.600,322.085 185.640,323.100 185.613 C 323.818 185.594,323.720 184.400,323.000 184.400 C 322.496 184.400,322.400 183.532,322.400 178.987 C 322.400 174.545,322.508 173.534,323.000 173.345 C 323.783 173.044,323.774 172.400,322.987 172.400 C 322.651 172.400,322.271 172.130,322.145 171.800 C 322.018 171.470,321.664 171.200,321.357 171.200 C 321.051 171.200,320.800 171.020,320.800 170.800 C 320.800 170.249,321.513 170.299,322.231 170.900 M97.600 179.400 C 97.600 181.930,97.462 184.000,97.292 184.000 C 97.123 184.000,96.985 181.930,96.985 179.400 C 96.985 176.870,97.123 174.800,97.292 174.800 C 97.462 174.800,97.600 176.870,97.600 179.400 M196.466 214.999 C 196.576 215.109,197.955 215.827,199.532 216.594 C 201.108 217.361,203.164 218.450,204.099 219.014 C 205.725 219.993,205.751 219.997,204.683 219.091 C 202.904 217.581,195.224 213.757,196.466 214.999 M206.000 220.351 C 206.000 220.598,206.149 220.800,206.332 220.800 C 206.514 220.800,207.758 221.790,209.095 223.000 C 210.432 224.210,211.619 225.200,211.733 225.200 C 211.956 225.200,207.860 221.324,206.700 220.437 C 206.234 220.081,206.000 220.052,206.000 220.351 M178.400 239.052 C 170.882 240.505,165.260 249.004,166.775 256.625 C 169.655 271.112,189.054 273.821,195.402 260.622 C 200.887 249.219,190.960 236.625,178.400 239.052 M195.575 254.100 C 195.561 257.015,195.425 259.040,195.274 258.600 C 194.985 257.759,195.123 248.800,195.425 248.800 C 195.521 248.800,195.589 251.185,195.575 254.100 " stroke="none" fill="#fb9006" fill-rule="evenodd"></path><path id="path1" d="M0.000 200.000 L 0.000 400.000 200.000 400.000 L 400.000 400.000 400.000 200.000 L 400.000 0.000 200.000 0.000 L 0.000 0.000 0.000 200.000 M220.400 52.667 C 221.170 53.677,221.980 54.794,222.200 55.151 C 222.420 55.508,222.699 55.890,222.820 56.000 C 222.941 56.110,224.109 57.640,225.416 59.400 C 226.722 61.160,227.928 62.660,228.096 62.733 C 228.263 62.807,228.400 63.107,228.400 63.400 C 228.400 63.693,228.546 63.993,228.725 64.067 C 229.101 64.221,230.659 66.260,240.310 79.228 C 241.690 81.082,243.049 82.875,243.329 83.211 C 243.771 83.739,246.862 87.847,247.686 89.000 C 247.843 89.220,248.483 90.030,249.107 90.800 C 249.731 91.570,250.950 93.190,251.815 94.400 C 253.434 96.665,253.896 97.276,254.620 98.114 C 254.851 98.381,255.830 99.680,256.795 101.000 C 257.760 102.320,258.696 103.460,258.875 103.533 C 259.054 103.607,259.200 103.922,259.200 104.233 C 259.200 104.545,259.335 104.804,259.500 104.809 C 259.665 104.814,260.430 105.710,261.200 106.800 C 261.970 107.890,262.735 108.786,262.900 108.791 C 263.065 108.796,263.200 108.992,263.200 109.227 C 263.200 109.588,264.942 112.174,265.608 112.800 C 265.725 112.910,266.444 113.810,267.207 114.800 C 267.969 115.790,268.907 116.947,269.292 117.371 C 269.676 117.794,270.095 118.469,270.222 118.871 C 270.350 119.272,270.622 119.600,270.827 119.600 C 271.032 119.600,271.200 119.870,271.200 120.200 C 271.200 120.530,271.356 120.800,271.547 120.800 C 271.738 120.800,272.346 121.475,272.899 122.300 C 273.452 123.125,274.376 124.340,274.952 125.000 C 275.528 125.660,275.999 126.322,276.000 126.471 C 276.000 126.621,276.234 126.981,276.520 127.271 C 276.806 127.562,277.830 128.880,278.795 130.200 C 279.760 131.520,280.696 132.660,280.875 132.733 C 281.412 132.954,281.250 135.203,280.700 135.171 C 280.425 135.155,279.660 134.803,279.000 134.389 C 278.340 133.974,277.170 133.319,276.400 132.932 C 275.630 132.545,273.920 131.618,272.600 130.871 C 269.906 129.348,263.872 126.100,262.503 125.435 C 262.010 125.196,261.605 124.865,261.603 124.700 C 261.601 124.535,261.251 124.400,260.824 124.400 C 260.397 124.400,259.936 124.220,259.799 123.999 C 259.663 123.778,258.797 123.229,257.876 122.779 C 256.954 122.328,255.210 121.416,254.000 120.752 C 252.790 120.087,250.720 118.971,249.400 118.272 C 248.080 117.572,246.910 116.910,246.800 116.800 C 246.690 116.690,245.610 116.091,244.400 115.468 C 241.429 113.940,236.912 111.486,235.200 110.472 C 234.430 110.016,232.540 109.006,231.000 108.228 C 227.983 106.704,225.122 105.122,224.800 104.800 C 224.690 104.690,223.430 104.003,222.000 103.274 C 213.808 99.096,212.233 97.971,211.798 95.990 C 211.655 95.341,211.372 94.706,211.169 94.581 C 210.966 94.455,210.800 93.859,210.800 93.256 C 210.800 92.653,210.634 91.989,210.431 91.780 C 208.487 89.779,208.465 66.975,210.406 65.034 C 210.623 64.817,210.800 64.224,210.800 63.715 C 210.800 63.206,210.954 62.477,211.141 62.095 C 211.329 61.713,211.799 60.680,212.185 59.800 C 213.651 56.465,214.736 54.514,215.738 53.412 C 216.145 52.965,216.635 52.195,216.829 51.700 C 217.412 50.207,218.813 50.587,220.400 52.667 M136.837 68.244 C 137.090 68.550,137.549 68.800,137.857 68.800 C 138.164 68.800,139.129 69.250,140.000 69.800 C 140.871 70.350,141.753 70.800,141.959 70.800 C 142.165 70.800,142.393 70.935,142.467 71.100 C 142.540 71.265,143.410 71.807,144.400 72.304 C 145.390 72.801,147.460 73.928,149.000 74.808 C 150.540 75.687,152.554 76.765,153.476 77.202 C 154.397 77.640,155.263 78.178,155.399 78.399 C 155.536 78.620,155.982 78.800,156.390 78.800 C 156.799 78.800,157.193 78.935,157.267 79.100 C 157.340 79.265,158.300 79.863,159.400 80.429 C 160.500 80.995,162.480 82.062,163.800 82.801 C 169.372 85.919,170.292 86.413,172.100 87.260 C 173.145 87.750,174.000 88.296,174.000 88.475 C 174.000 88.654,174.274 88.800,174.608 88.800 C 174.942 88.800,175.929 89.250,176.800 89.800 C 177.671 90.350,178.553 90.800,178.759 90.800 C 178.965 90.800,179.193 90.935,179.267 91.100 C 179.340 91.265,180.210 91.807,181.200 92.304 C 182.190 92.801,184.260 93.928,185.800 94.808 C 187.340 95.687,189.354 96.765,190.276 97.202 C 191.197 97.640,192.063 98.178,192.199 98.399 C 192.336 98.620,192.782 98.800,193.190 98.800 C 193.599 98.800,193.993 98.935,194.067 99.100 C 194.140 99.265,195.157 99.892,196.326 100.493 C 199.049 101.892,200.946 102.946,201.200 103.200 C 201.389 103.389,202.671 104.076,208.107 106.900 C 209.376 107.560,210.512 108.257,210.631 108.450 C 210.750 108.642,211.197 108.800,211.624 108.800 C 212.051 108.800,212.400 108.960,212.400 109.157 C 212.400 109.353,212.850 109.626,213.400 109.764 C 213.950 109.902,214.400 110.192,214.400 110.408 C 214.400 110.623,214.745 110.800,215.167 110.800 C 215.588 110.800,215.993 110.935,216.067 111.100 C 216.140 111.265,217.100 111.863,218.200 112.429 C 219.300 112.995,221.280 114.062,222.600 114.801 C 226.536 117.004,228.799 118.218,232.700 120.222 C 234.735 121.267,236.400 122.274,236.400 122.461 C 236.400 122.647,236.745 122.800,237.167 122.800 C 237.588 122.800,237.993 122.935,238.067 123.100 C 238.140 123.265,239.460 124.030,241.000 124.800 C 242.540 125.570,243.890 126.291,244.000 126.403 C 244.267 126.674,248.267 128.821,249.900 129.570 C 250.615 129.898,251.200 130.309,251.200 130.483 C 251.200 130.658,251.474 130.800,251.808 130.800 C 252.142 130.800,253.087 131.210,253.908 131.711 C 254.729 132.213,256.075 132.974,256.900 133.402 C 257.725 133.831,258.400 134.321,258.400 134.491 C 258.400 134.661,258.674 134.800,259.008 134.800 C 259.342 134.800,260.287 135.215,261.108 135.723 C 261.929 136.231,263.320 136.978,264.200 137.382 C 265.080 137.787,265.890 138.228,266.000 138.363 C 266.110 138.498,267.280 139.139,268.600 139.787 C 269.920 140.435,271.090 141.064,271.200 141.183 C 271.310 141.303,272.210 141.811,273.200 142.312 C 274.190 142.813,276.260 143.934,277.800 144.804 C 279.340 145.673,280.870 146.510,281.200 146.663 C 281.530 146.816,282.471 147.360,283.292 147.871 C 284.113 148.382,285.043 148.800,285.359 148.800 C 285.675 148.800,285.993 148.935,286.067 149.100 C 286.140 149.265,287.100 149.863,288.200 150.429 C 292.074 152.421,295.001 154.123,295.133 154.460 C 295.207 154.647,295.511 154.800,295.810 154.800 C 296.110 154.800,297.037 155.205,297.871 155.700 C 300.173 157.066,302.397 158.258,304.500 159.252 C 305.545 159.746,306.400 160.296,306.400 160.475 C 306.400 160.654,306.745 160.800,307.167 160.800 C 307.588 160.800,307.993 160.935,308.067 161.100 C 308.140 161.265,308.920 161.758,309.800 162.196 C 310.680 162.634,311.490 163.084,311.600 163.197 C 311.710 163.309,312.610 163.807,313.600 164.304 C 314.590 164.801,316.660 165.926,318.200 166.804 C 319.740 167.681,321.628 168.710,322.395 169.090 C 326.683 171.214,330.909 177.554,329.630 179.945 C 329.393 180.386,329.200 181.119,329.200 181.574 C 329.200 182.028,329.020 182.400,328.800 182.400 C 328.580 182.400,328.400 182.642,328.400 182.938 C 328.400 184.228,323.223 188.719,319.000 191.092 C 316.059 192.744,308.447 196.400,307.920 196.413 C 307.634 196.419,306.500 196.868,305.400 197.409 C 304.300 197.950,303.121 198.394,302.780 198.396 C 302.439 198.398,301.989 198.543,301.780 198.718 C 301.571 198.893,300.320 199.364,299.000 199.764 C 297.680 200.165,296.240 200.625,295.800 200.787 C 293.650 201.576,292.091 202.100,291.000 202.401 C 290.340 202.583,288.810 203.022,287.600 203.376 C 286.390 203.731,284.721 204.130,283.890 204.264 C 283.060 204.398,282.284 204.664,282.167 204.854 C 282.049 205.044,281.496 205.200,280.937 205.200 C 278.835 205.200,277.458 206.294,276.265 208.910 C 275.640 210.279,274.245 213.171,273.165 215.335 C 272.084 217.499,271.200 219.524,271.200 219.835 C 271.200 220.146,271.020 220.400,270.800 220.400 C 270.580 220.400,270.400 220.674,270.400 221.008 C 270.400 221.342,269.950 222.329,269.400 223.200 C 268.850 224.071,268.400 224.922,268.400 225.091 C 268.400 225.588,265.028 232.187,264.700 232.333 C 264.535 232.407,264.400 232.708,264.400 233.002 C 264.400 233.297,263.698 234.947,262.840 236.669 C 258.871 244.636,255.200 252.371,255.200 252.766 C 255.200 253.005,255.020 253.200,254.800 253.200 C 254.580 253.200,254.400 253.455,254.400 253.768 C 254.400 254.435,253.135 256.940,252.700 257.133 C 252.535 257.207,252.400 257.471,252.400 257.720 C 252.400 258.182,251.564 259.940,243.991 275.400 C 241.621 280.240,239.303 285.044,238.842 286.076 C 238.380 287.107,237.822 288.063,237.601 288.199 C 237.380 288.336,237.200 288.797,237.200 289.224 C 237.200 289.651,237.020 290.000,236.800 290.000 C 236.580 290.000,236.400 290.192,236.400 290.427 C 236.400 291.684,230.474 298.003,226.800 300.664 C 223.673 302.929,218.123 305.713,215.200 306.484 C 206.470 308.785,198.493 308.280,192.749 305.063 C 189.665 303.336,189.548 303.514,201.768 291.314 C 207.835 285.255,212.800 280.141,212.800 279.949 C 212.800 279.757,212.944 279.600,213.120 279.600 C 213.533 279.600,217.418 273.680,217.779 272.500 C 217.930 272.005,218.222 271.600,218.427 271.600 C 218.632 271.600,218.800 271.276,218.800 270.880 C 218.800 270.484,218.943 269.989,219.118 269.780 C 219.397 269.447,220.003 267.588,221.198 263.400 C 222.506 258.820,222.468 246.491,221.143 245.020 C 220.954 244.811,220.800 244.205,220.800 243.674 C 220.800 242.536,219.534 238.660,219.100 238.467 C 218.935 238.393,218.800 237.898,218.800 237.367 C 218.800 236.835,218.632 236.400,218.427 236.400 C 218.222 236.400,217.928 235.995,217.774 235.500 C 216.587 231.680,210.224 224.401,205.000 220.885 C 203.460 219.848,202.110 218.910,202.000 218.800 C 201.502 218.302,197.190 216.377,195.200 215.765 C 193.990 215.392,192.687 214.933,192.305 214.744 C 191.923 214.555,191.167 214.400,190.625 214.400 C 190.083 214.400,188.602 214.130,187.335 213.800 C 184.380 213.030,178.381 213.032,175.836 213.804 C 174.756 214.132,173.359 214.400,172.731 214.400 C 172.103 214.400,171.277 214.562,170.895 214.760 C 170.513 214.958,169.075 215.453,167.700 215.860 C 166.325 216.267,165.200 216.735,165.200 216.900 C 165.200 217.065,164.862 217.200,164.449 217.200 C 164.036 217.200,163.474 217.470,163.200 217.800 C 162.926 218.130,162.531 218.400,162.321 218.400 C 159.801 218.400,147.200 230.329,147.200 232.716 C 147.200 232.945,147.065 233.193,146.900 233.267 C 146.568 233.414,144.841 236.913,143.872 239.400 C 143.273 240.939,143.059 241.638,141.978 245.600 C 141.143 248.663,141.028 258.569,141.793 261.600 C 142.669 265.070,143.662 268.462,144.019 269.200 C 144.178 269.530,144.824 270.880,145.454 272.200 C 146.084 273.520,146.735 274.660,146.900 274.733 C 147.065 274.807,147.200 275.044,147.200 275.260 C 147.200 275.597,148.972 278.202,149.608 278.800 C 149.725 278.910,150.381 279.720,151.066 280.600 C 151.751 281.480,159.487 289.400,168.257 298.200 C 177.027 307.000,184.662 314.830,185.224 315.600 C 186.493 317.340,188.400 321.381,188.400 322.331 C 188.400 322.721,188.610 323.250,188.867 323.507 C 189.514 324.154,189.514 335.846,188.867 336.493 C 188.610 336.750,188.400 337.369,188.400 337.869 C 188.400 340.671,183.279 348.400,181.422 348.400 C 180.857 348.400,169.723 337.505,146.369 314.100 C 114.140 281.801,109.392 276.827,106.559 272.400 C 105.926 271.410,105.303 270.510,105.175 270.400 C 105.046 270.290,104.821 269.930,104.673 269.600 C 104.346 268.869,103.480 267.474,103.183 267.200 C 103.063 267.090,102.453 265.920,101.827 264.600 C 101.201 263.280,100.263 261.328,99.744 260.263 C 99.225 259.198,98.800 258.019,98.800 257.643 C 98.800 257.267,98.643 256.789,98.451 256.580 C 98.131 256.230,97.677 254.787,96.384 250.000 C 95.044 245.037,94.541 231.405,95.490 225.748 C 96.061 222.347,96.818 219.131,97.243 218.305 C 97.439 217.923,97.600 217.321,97.600 216.966 C 97.600 216.611,97.888 215.664,98.241 214.860 C 98.892 213.376,99.036 213.034,100.207 210.200 C 101.071 208.107,101.183 207.892,104.563 201.815 C 104.804 201.384,105.225 200.786,105.500 200.487 C 105.775 200.188,106.000 199.810,106.000 199.647 C 106.000 199.484,106.323 199.002,106.718 198.575 C 107.112 198.149,108.227 196.720,109.195 195.400 C 111.396 192.400,118.388 185.424,121.475 183.148 C 122.754 182.206,124.149 181.112,124.575 180.718 C 125.002 180.323,125.484 180.000,125.647 180.000 C 125.810 180.000,126.188 179.775,126.487 179.500 C 127.058 178.975,127.162 178.913,131.000 176.815 C 132.320 176.093,133.571 175.344,133.780 175.151 C 133.989 174.958,134.462 174.800,134.831 174.800 C 135.200 174.800,135.726 174.530,136.000 174.200 C 136.274 173.870,136.836 173.600,137.249 173.600 C 137.662 173.600,138.000 173.420,138.000 173.200 C 138.000 172.980,138.332 172.800,138.739 172.800 C 139.412 172.800,141.111 172.135,142.895 171.174 C 143.277 170.968,144.132 170.800,144.795 170.800 C 145.458 170.800,146.000 170.620,146.000 170.400 C 146.000 170.180,146.249 170.000,146.554 170.000 C 146.859 170.000,147.984 169.746,149.054 169.436 C 156.375 167.314,172.317 166.630,180.000 168.108 C 181.870 168.468,183.940 168.846,184.600 168.949 C 186.731 169.279,189.390 170.036,189.780 170.423 C 189.989 170.630,190.653 170.800,191.256 170.800 C 191.859 170.800,192.464 170.980,192.600 171.200 C 192.736 171.420,193.152 171.601,193.524 171.602 C 193.896 171.604,194.716 171.874,195.346 172.202 C 195.976 172.531,196.743 172.800,197.051 172.800 C 197.359 172.800,197.923 172.967,198.305 173.172 C 198.687 173.376,200.620 174.289,202.600 175.200 C 204.580 176.111,206.470 176.992,206.800 177.158 C 208.068 177.795,210.209 179.009,210.400 179.200 C 210.724 179.524,212.074 180.306,214.000 181.285 C 214.990 181.788,215.860 182.335,215.933 182.500 C 216.007 182.665,216.376 182.800,216.753 182.800 C 217.131 182.800,217.611 182.955,217.820 183.144 C 219.460 184.626,228.573 184.667,232.200 183.207 C 234.217 182.396,237.851 180.554,238.329 180.101 C 238.619 179.826,239.026 179.600,239.231 179.600 C 239.763 179.600,246.800 172.572,246.800 172.040 C 246.800 171.798,246.939 171.600,247.109 171.600 C 247.279 171.600,247.769 170.925,248.198 170.100 C 248.626 169.275,249.387 167.929,249.889 167.108 C 250.390 166.287,250.800 165.340,250.800 165.003 C 250.800 164.665,250.968 164.077,251.173 163.695 C 253.343 159.660,252.631 153.485,249.639 150.385 C 247.480 148.148,242.646 146.400,238.620 146.400 C 237.868 146.400,236.745 146.201,236.126 145.957 C 235.062 145.539,233.418 145.237,227.800 144.425 C 222.357 143.639,219.332 143.119,218.172 142.769 C 217.496 142.566,216.415 142.400,215.769 142.400 C 215.123 142.400,213.966 142.198,213.197 141.951 C 211.894 141.532,210.948 141.361,204.900 140.456 C 199.649 139.670,196.529 139.118,195.372 138.769 C 194.696 138.566,193.504 138.400,192.722 138.400 C 191.940 138.400,190.535 138.130,189.600 137.800 C 188.665 137.470,187.123 137.200,186.173 137.200 C 185.224 137.200,184.336 137.020,184.200 136.800 C 184.064 136.580,183.228 136.400,182.342 136.400 C 180.681 136.400,175.934 135.376,174.705 134.752 C 174.323 134.559,173.631 134.400,173.167 134.400 C 172.703 134.400,171.756 134.104,171.062 133.743 C 168.818 132.575,168.418 132.400,167.982 132.400 C 167.314 132.400,160.800 129.122,160.800 128.786 C 160.800 128.621,160.350 128.374,159.800 128.236 C 159.250 128.098,158.800 127.808,158.800 127.592 C 158.800 127.377,158.530 127.200,158.200 127.200 C 157.870 127.200,157.600 127.020,157.600 126.800 C 157.600 126.580,157.375 126.397,157.100 126.394 C 156.825 126.390,155.970 125.846,155.200 125.185 C 148.775 119.667,148.900 119.792,144.608 114.600 C 144.062 113.940,143.432 113.183,143.208 112.917 C 142.984 112.651,142.800 112.324,142.800 112.190 C 142.800 112.056,142.350 111.357,141.800 110.636 C 141.250 109.914,140.800 109.116,140.800 108.862 C 140.800 108.608,140.623 108.400,140.408 108.400 C 140.192 108.400,139.902 107.950,139.764 107.400 C 139.626 106.850,139.353 106.400,139.157 106.400 C 138.960 106.400,138.800 106.126,138.800 105.792 C 138.800 105.458,138.350 104.471,137.800 103.600 C 137.250 102.729,136.800 101.763,136.800 101.454 C 136.800 101.144,136.531 100.376,136.202 99.746 C 135.874 99.116,135.604 98.285,135.602 97.900 C 135.601 97.515,135.420 97.200,135.200 97.200 C 134.980 97.200,134.800 96.819,134.800 96.354 C 134.800 95.888,134.539 94.673,134.220 93.654 C 132.467 88.053,131.647 80.121,132.339 75.468 C 132.592 73.763,132.801 71.790,132.801 71.084 C 132.805 68.135,135.293 66.384,136.837 68.244 M89.200 164.291 C 89.970 164.616,91.035 165.088,91.566 165.341 C 92.914 165.982,96.684 169.668,97.184 170.834 C 97.412 171.365,97.758 172.070,97.953 172.400 C 101.870 179.029,98.276 190.347,91.200 193.660 C 90.430 194.021,89.277 194.560,88.639 194.858 C 87.897 195.204,86.001 195.398,83.391 195.395 C 79.568 195.391,78.440 195.158,76.400 193.953 C 76.070 193.758,75.426 193.435,74.969 193.235 C 68.913 190.591,65.587 178.970,68.972 172.285 C 72.604 165.112,82.180 161.328,89.200 164.291 M185.752 238.392 C 185.976 238.616,186.424 238.800,186.746 238.800 C 187.583 238.800,190.400 240.093,190.400 240.477 C 190.400 240.655,190.633 240.800,190.919 240.800 C 191.811 240.800,196.400 246.141,196.400 247.179 C 196.400 247.416,196.559 247.923,196.753 248.305 C 202.335 259.298,189.227 273.690,177.386 269.570 C 173.144 268.093,167.600 263.679,167.600 261.778 C 167.600 261.460,167.420 261.200,167.200 261.200 C 166.980 261.200,166.800 260.861,166.800 260.446 C 166.800 260.031,166.531 259.176,166.202 258.546 C 165.809 257.792,165.605 256.238,165.605 254.000 C 165.605 251.762,165.809 250.208,166.202 249.454 C 166.531 248.824,166.800 247.969,166.800 247.554 C 166.800 247.139,166.980 246.800,167.200 246.800 C 167.420 246.800,167.600 246.558,167.600 246.261 C 167.600 245.965,167.979 245.290,168.441 244.761 C 168.904 244.233,169.693 243.316,170.194 242.725 C 171.289 241.434,175.005 239.013,176.400 238.682 C 176.950 238.552,178.030 238.262,178.800 238.039 C 180.444 237.562,185.162 237.802,185.752 238.392 " stroke="none" fill="#fcfbfb" fill-rule="evenodd"></path><path id="path2" d="M275.835 129.943 C 275.612 130.305,277.176 131.757,277.471 131.462 C 277.579 131.355,277.298 130.898,276.848 130.448 C 276.398 129.998,275.942 129.771,275.835 129.943 M248.800 131.580 C 248.800 131.789,249.025 132.104,249.300 132.280 C 250.192 132.850,249.999 146.800,249.100 146.800 C 248.715 146.800,248.400 146.980,248.400 147.200 C 248.400 147.420,248.679 147.600,249.019 147.600 C 251.204 147.600,254.394 154.720,253.845 158.373 C 253.710 159.268,253.492 160.765,253.359 161.700 C 253.226 162.635,252.956 163.571,252.759 163.780 C 252.562 163.989,252.400 164.494,252.400 164.903 C 252.400 165.312,251.950 166.452,251.400 167.437 C 250.850 168.422,250.400 169.492,250.400 169.814 C 250.400 170.136,250.220 170.400,250.000 170.400 C 249.780 170.400,249.600 170.676,249.600 171.013 C 249.600 171.349,249.330 171.729,249.000 171.855 C 248.670 171.982,248.400 172.336,248.400 172.643 C 248.400 172.949,248.670 173.200,249.000 173.200 C 249.979 173.200,249.883 185.401,248.900 185.953 C 247.869 186.532,249.178 186.975,250.905 186.632 C 251.617 186.490,253.100 186.218,254.200 186.027 C 272.474 182.854,288.659 169.543,288.555 157.770 C 288.513 152.958,286.480 150.447,279.914 147.096 C 278.311 146.278,275.650 144.870,274.000 143.967 C 271.445 142.569,266.717 140.098,255.200 134.138 C 253.990 133.512,252.940 132.865,252.867 132.700 C 252.793 132.535,252.343 132.394,251.867 132.387 C 251.390 132.380,250.651 132.110,250.224 131.787 C 249.330 131.111,248.800 131.034,248.800 131.580 M215.200 137.456 C 215.200 138.037,215.498 138.730,215.863 138.997 C 216.452 139.428,216.406 139.512,215.447 139.753 C 213.880 140.146,214.566 140.800,216.544 140.800 C 217.477 140.800,218.411 140.960,218.620 141.156 C 219.060 141.567,222.897 142.377,225.800 142.671 C 226.900 142.783,227.971 143.037,228.180 143.237 C 228.389 143.437,229.469 143.596,230.580 143.592 L 232.600 143.583 228.800 142.265 C 226.710 141.541,222.882 139.924,220.294 138.674 C 214.807 136.022,215.200 136.116,215.200 137.456 M320.800 170.800 C 320.800 171.020,321.051 171.200,321.357 171.200 C 321.664 171.200,322.018 171.470,322.145 171.800 C 322.271 172.130,322.651 172.400,322.987 172.400 C 323.774 172.400,323.783 173.044,323.000 173.345 C 322.508 173.534,322.400 174.545,322.400 178.987 C 322.400 183.532,322.496 184.400,323.000 184.400 C 323.720 184.400,323.818 185.594,323.100 185.613 C 322.085 185.640,320.228 187.600,321.217 187.600 C 321.609 187.600,322.062 187.287,323.385 186.100 C 323.692 185.825,324.059 185.600,324.200 185.600 C 324.615 185.600,325.600 184.495,325.600 184.029 C 325.600 183.793,325.870 183.600,326.200 183.600 C 326.530 183.600,326.800 183.255,326.800 182.833 C 326.800 182.412,327.025 181.991,327.300 181.899 C 328.704 181.427,327.856 175.762,326.123 174.029 C 325.227 173.133,324.370 172.400,324.218 172.400 C 324.067 172.400,323.692 172.175,323.385 171.900 C 321.606 170.304,320.800 169.961,320.800 170.800 M96.985 179.400 C 96.985 181.930,97.123 184.000,97.292 184.000 C 97.462 184.000,97.600 181.930,97.600 179.400 C 97.600 176.870,97.462 174.800,97.292 174.800 C 97.123 174.800,96.985 176.870,96.985 179.400 M190.800 197.520 C 190.800 206.839,190.933 210.773,191.258 211.098 C 191.602 211.442,191.453 211.622,190.661 211.821 C 189.236 212.178,189.720 212.800,191.424 212.800 C 192.181 212.800,192.800 212.980,192.800 213.200 C 192.800 213.420,193.064 213.600,193.386 213.600 C 194.743 213.600,202.127 217.237,205.299 219.467 C 213.535 225.259,220.870 236.208,222.203 244.700 C 222.350 245.635,222.621 246.400,222.806 246.400 C 222.990 246.400,223.226 246.715,223.329 247.100 C 223.764 248.728,223.109 239.078,222.549 235.600 C 221.959 231.940,220.451 226.298,219.396 223.800 C 219.117 223.140,218.757 222.150,218.595 221.600 C 217.785 218.843,213.473 210.256,210.918 206.312 C 209.557 204.210,204.812 197.569,204.227 196.946 C 203.992 196.696,202.900 195.444,201.800 194.164 C 198.406 190.215,192.078 184.447,191.100 184.411 C 190.935 184.405,190.800 190.304,190.800 197.520 M141.246 241.929 C 141.221 242.439,140.930 243.127,140.600 243.457 C 140.270 243.787,140.000 244.458,140.000 244.949 C 140.000 245.439,139.828 246.012,139.617 246.223 C 139.221 246.619,137.317 254.104,136.367 259.000 C 135.460 263.675,135.678 278.892,136.718 283.400 C 138.082 289.318,138.322 290.137,139.498 292.895 L 140.625 295.537 142.697 293.069 C 143.836 291.711,146.031 289.250,147.575 287.600 C 149.118 285.950,150.385 284.465,150.390 284.300 C 150.396 284.135,150.670 284.000,151.000 284.000 C 151.330 284.000,151.600 283.820,151.600 283.600 C 151.600 283.380,151.420 283.200,151.200 283.200 C 150.980 283.200,150.800 283.012,150.800 282.783 C 150.800 282.554,150.431 281.971,149.980 281.487 C 149.153 280.599,144.800 273.779,144.800 273.371 C 144.800 273.250,144.364 272.217,143.831 271.075 C 140.163 263.220,139.051 251.486,141.263 243.966 C 141.494 243.178,141.596 242.188,141.489 241.766 C 141.325 241.125,141.285 241.151,141.246 241.929 M195.124 253.300 C 195.055 255.775,195.123 258.160,195.274 258.600 C 195.425 259.040,195.561 257.015,195.575 254.100 C 195.606 247.638,195.298 247.091,195.124 253.300 " stroke="none" fill="#f83b05" fill-rule="evenodd"></path><path id="path3" d="M217.554 51.700 C 215.502 53.412,211.914 60.545,210.462 65.800 C 207.863 75.202,208.688 88.609,212.319 96.000 C 213.489 98.382,213.227 98.200,222.800 103.272 C 224.890 104.379,226.780 105.420,227.000 105.585 C 227.220 105.750,229.200 106.838,231.400 108.002 C 235.363 110.099,238.497 111.799,241.200 113.317 C 241.970 113.749,243.937 114.817,245.570 115.688 C 247.204 116.560,248.914 117.507,249.370 117.793 C 249.827 118.079,251.460 118.982,253.000 119.799 C 257.951 122.425,261.360 124.265,263.000 125.197 C 263.880 125.697,265.680 126.688,267.000 127.400 C 268.320 128.112,271.290 129.731,273.600 130.997 C 280.494 134.778,280.582 134.817,280.729 134.171 C 280.839 133.689,279.547 131.430,278.802 130.800 C 278.672 130.690,277.442 129.070,276.069 127.200 C 274.695 125.330,273.349 123.530,273.076 123.200 C 272.803 122.870,270.162 119.360,267.207 115.400 C 264.253 111.440,261.737 108.110,261.618 108.000 C 261.498 107.890,259.240 104.920,256.600 101.400 C 253.960 97.880,251.706 94.910,251.592 94.800 C 251.477 94.690,250.127 92.891,248.592 90.802 C 247.056 88.714,245.581 86.734,245.313 86.402 C 244.794 85.760,237.562 76.184,225.905 60.700 C 218.465 50.819,218.528 50.887,217.554 51.700 M220.702 54.647 C 221.746 56.103,222.933 57.678,223.340 58.147 C 223.747 58.616,225.178 60.530,226.521 62.400 C 227.864 64.270,229.077 65.890,229.216 66.000 C 229.355 66.110,230.522 67.640,231.809 69.400 C 233.096 71.160,234.266 72.690,234.409 72.800 C 234.552 72.910,235.640 74.350,236.827 76.000 C 238.961 78.966,239.410 79.566,240.210 80.514 C 240.436 80.781,244.123 85.680,248.405 91.400 C 252.687 97.120,256.283 101.890,256.396 102.000 C 256.509 102.110,257.412 103.279,258.401 104.598 C 259.390 105.918,260.515 107.347,260.900 107.774 C 261.285 108.201,261.600 108.684,261.600 108.847 C 261.600 109.010,261.834 109.381,262.119 109.671 C 262.404 109.962,263.439 111.276,264.419 112.592 C 265.399 113.908,266.499 115.348,266.864 115.792 C 269.214 118.651,279.985 133.348,279.838 133.495 C 279.739 133.594,278.430 133.000,276.929 132.175 C 275.428 131.350,272.940 130.008,271.400 129.193 C 269.860 128.378,267.700 127.200,266.600 126.576 C 265.500 125.952,263.790 125.016,262.800 124.496 C 261.810 123.976,260.460 123.231,259.800 122.841 C 258.704 122.194,256.562 121.032,249.789 117.412 C 248.463 116.703,246.303 115.520,244.989 114.783 C 243.675 114.046,241.790 113.017,240.800 112.497 C 239.810 111.976,238.460 111.234,237.800 110.848 C 236.340 109.992,231.075 107.124,227.789 105.393 C 226.463 104.694,224.303 103.520,222.989 102.783 C 221.675 102.046,219.790 101.020,218.800 100.502 C 213.897 97.940,213.363 97.449,212.264 94.497 C 207.545 81.818,209.402 63.494,216.368 54.000 C 218.301 51.366,218.356 51.375,220.702 54.647 M133.449 70.582 C 131.729 77.427,133.040 90.863,136.202 98.800 C 142.779 115.310,154.001 126.518,170.400 132.957 C 173.925 134.341,180.709 136.070,181.972 135.906 C 182.691 135.813,182.278 135.618,180.600 135.257 C 159.095 130.638,144.034 117.880,136.409 97.823 C 133.861 91.122,132.396 78.312,133.579 73.077 C 133.787 72.155,134.066 70.725,134.197 69.900 C 134.469 68.196,135.094 68.005,136.738 69.121 C 137.322 69.517,138.970 70.449,140.400 71.191 C 141.830 71.933,143.579 72.862,144.288 73.256 C 144.996 73.650,146.796 74.633,148.288 75.440 C 149.779 76.247,151.540 77.223,152.200 77.610 C 152.860 77.996,155.830 79.616,158.800 81.209 C 167.460 85.854,169.328 86.866,170.600 87.600 C 172.084 88.457,177.752 91.525,185.000 95.396 C 186.980 96.454,188.780 97.447,189.000 97.603 C 189.220 97.759,191.380 98.931,193.800 100.207 C 196.220 101.484,198.779 102.853,199.488 103.250 C 200.196 103.648,201.996 104.636,203.488 105.446 C 204.979 106.257,207.010 107.372,208.000 107.924 C 208.990 108.476,211.150 109.640,212.800 110.511 C 215.582 111.979,218.132 113.371,221.600 115.316 C 222.370 115.747,224.890 117.091,227.200 118.301 C 229.510 119.511,231.580 120.632,231.800 120.791 C 232.020 120.951,233.820 121.943,235.800 122.996 C 239.531 124.981,242.786 126.756,245.200 128.124 C 245.970 128.560,247.500 129.367,248.600 129.919 C 249.700 130.470,251.950 131.676,253.600 132.599 C 256.684 134.325,259.918 136.072,266.200 139.408 C 268.180 140.459,269.980 141.446,270.200 141.602 C 270.420 141.758,272.400 142.841,274.600 144.008 C 276.800 145.175,280.760 147.332,283.400 148.801 C 286.040 150.270,289.640 152.247,291.400 153.194 C 294.902 155.079,298.225 156.896,300.400 158.116 C 301.170 158.547,303.690 159.891,306.000 161.101 C 308.310 162.311,310.380 163.436,310.600 163.601 C 310.820 163.766,312.260 164.580,313.800 165.410 C 315.340 166.241,317.590 167.462,318.800 168.124 C 320.010 168.786,321.360 169.523,321.800 169.763 C 329.044 173.716,330.846 179.470,326.345 184.276 C 323.535 187.277,316.744 192.000,315.240 192.000 C 314.998 192.000,314.800 192.180,314.800 192.400 C 314.800 192.620,314.524 192.800,314.186 192.800 C 313.848 192.800,313.173 193.048,312.686 193.352 C 311.733 193.945,302.384 197.646,298.000 199.166 C 294.819 200.268,286.880 202.626,280.400 204.393 C 277.344 205.226,276.950 205.476,276.201 207.063 C 275.802 207.908,273.502 212.650,271.089 217.600 C 268.676 222.550,265.307 229.480,263.603 233.000 C 257.728 245.137,253.506 253.824,249.607 261.800 C 247.455 266.200,243.681 273.940,241.219 279.000 C 235.510 290.735,235.477 290.800,235.109 290.800 C 234.939 290.800,234.800 290.979,234.800 291.197 C 234.800 292.075,230.663 296.549,227.826 298.741 C 225.043 300.890,224.860 301.001,220.600 303.115 C 217.653 304.577,215.765 305.243,211.354 306.377 C 205.303 307.932,190.968 305.332,191.910 302.851 C 192.046 302.493,196.757 297.602,202.379 291.982 C 212.972 281.391,214.987 279.175,217.086 275.800 C 218.580 273.399,221.200 267.772,221.200 266.965 C 221.200 266.648,221.374 266.077,221.586 265.695 C 222.384 264.258,223.200 258.564,223.196 254.457 C 223.185 241.639,217.103 228.962,207.400 221.532 C 206.740 221.026,205.868 220.310,205.462 219.941 C 204.484 219.052,197.136 215.298,195.048 214.621 C 179.720 209.653,163.871 213.361,152.610 224.549 C 148.975 228.161,146.800 230.778,146.800 231.540 C 146.800 231.756,146.664 231.993,146.498 232.067 C 146.182 232.206,143.593 237.328,142.791 239.400 C 141.258 243.361,139.761 252.521,140.133 255.667 C 140.930 262.402,142.131 267.574,143.523 270.254 C 143.736 270.664,144.408 271.990,145.017 273.200 C 145.989 275.134,149.386 280.180,150.575 281.457 C 150.809 281.708,158.220 289.178,167.045 298.057 C 188.818 319.963,190.598 323.139,188.082 335.600 C 187.242 339.764,182.873 347.600,181.391 347.600 C 180.802 347.600,112.482 278.906,110.778 276.600 C 109.803 275.280,108.913 274.110,108.801 274.000 C 108.689 273.890,107.884 272.720,107.011 271.400 C 101.652 263.295,98.358 255.335,96.601 246.242 C 95.798 242.083,95.924 226.657,96.785 223.800 C 97.051 222.920,97.424 221.570,97.615 220.800 C 98.416 217.570,99.348 214.575,99.663 214.220 C 99.848 214.011,100.000 213.602,100.000 213.312 C 100.000 211.399,106.423 200.269,110.338 195.400 C 119.816 183.610,134.846 173.871,148.600 170.607 C 150.140 170.242,152.030 169.784,152.800 169.590 C 158.365 168.188,172.072 167.716,177.800 168.730 C 183.443 169.728,187.591 170.676,192.080 171.992 C 196.793 173.375,205.620 177.497,212.215 181.396 C 218.345 185.020,226.008 186.357,230.400 184.569 L 231.800 183.999 230.400 184.241 C 222.939 185.531,219.004 184.725,211.600 180.389 C 192.691 169.314,174.495 165.618,154.200 168.730 C 149.964 169.380,143.089 171.434,138.600 173.392 C 135.559 174.719,134.765 175.121,131.200 177.143 C 99.987 194.841,86.738 231.063,100.553 260.929 C 101.349 262.650,102.000 264.144,102.000 264.248 C 102.000 264.353,102.630 265.423,103.400 266.627 C 104.170 267.831,104.800 268.907,104.800 269.019 C 104.800 269.360,110.637 277.348,112.262 279.232 C 115.649 283.158,180.778 348.000,181.334 348.000 C 182.335 348.000,185.240 344.367,186.611 341.400 C 190.671 332.619,189.977 323.333,184.688 315.635 C 183.995 314.626,176.430 306.797,167.877 298.238 C 149.158 279.506,148.117 278.314,144.954 272.000 C 138.119 258.355,140.245 239.119,149.800 228.140 C 163.141 212.812,184.413 208.537,200.919 217.867 C 202.216 218.600,203.440 219.200,203.638 219.200 C 203.837 219.200,204.000 219.351,204.000 219.536 C 204.000 219.720,204.405 220.058,204.900 220.287 C 208.166 221.793,214.751 229.074,217.663 234.400 C 223.099 244.340,224.233 258.226,220.391 267.800 C 216.966 276.335,216.154 277.386,202.100 291.494 C 190.164 303.476,190.248 303.348,193.300 304.898 C 206.212 311.456,224.475 305.619,235.532 291.400 C 236.096 290.674,237.913 287.099,241.630 279.400 C 248.457 265.262,251.482 259.029,256.192 249.400 C 263.728 233.992,273.213 214.480,275.991 208.669 C 277.390 205.744,277.474 205.683,281.600 204.595 C 283.030 204.218,284.650 203.770,285.200 203.600 C 285.750 203.430,287.370 202.980,288.800 202.601 C 290.230 202.222,291.760 201.776,292.200 201.610 C 292.640 201.445,293.990 200.999,295.200 200.621 C 296.410 200.242,297.760 199.780,298.200 199.595 C 298.640 199.409,300.153 198.875,301.563 198.407 C 328.294 189.544,336.871 177.105,321.747 169.136 C 318.284 167.312,317.005 166.604,316.800 166.400 C 316.690 166.290,315.610 165.686,314.400 165.057 C 311.535 163.568,307.020 161.140,305.000 160.002 C 304.120 159.506,301.960 158.337,300.200 157.405 C 297.296 155.867,295.927 155.115,291.600 152.681 C 290.830 152.248,288.490 150.993,286.400 149.893 C 284.310 148.792,282.420 147.754,282.200 147.585 C 281.980 147.416,280.374 146.529,278.632 145.613 C 276.890 144.698,274.460 143.388,273.232 142.702 C 270.368 141.103,267.568 139.576,264.800 138.103 C 261.291 136.235,256.346 133.556,254.812 132.692 C 254.036 132.255,252.140 131.223,250.600 130.400 C 245.381 127.609,242.206 125.897,240.400 124.899 C 239.410 124.352,237.430 123.269,236.000 122.492 C 234.570 121.715,232.486 120.578,231.368 119.966 C 230.250 119.353,228.000 118.145,226.368 117.282 C 224.736 116.419,222.680 115.304,221.800 114.804 C 220.920 114.305,218.940 113.223,217.400 112.400 C 215.860 111.577,213.964 110.545,213.188 110.108 C 211.518 109.167,206.305 106.347,203.200 104.705 C 201.990 104.065,200.460 103.227,199.800 102.843 C 198.519 102.097,194.096 99.694,189.200 97.082 C 187.550 96.201,185.300 94.982,184.200 94.373 C 183.100 93.763,181.390 92.835,180.400 92.311 C 179.410 91.786,177.610 90.803,176.400 90.125 C 174.109 88.841,170.167 86.702,166.400 84.697 C 163.428 83.115,160.606 81.574,158.200 80.217 C 157.100 79.597,154.864 78.383,153.232 77.519 C 151.600 76.655,149.260 75.388,148.032 74.702 C 143.682 72.274,141.783 71.240,140.400 70.547 C 139.630 70.162,138.329 69.431,137.508 68.923 C 134.897 67.307,134.200 67.592,133.449 70.582 M185.800 136.634 C 189.119 137.350,191.290 137.753,196.400 138.600 C 198.490 138.947,201.100 139.397,202.200 139.600 C 203.300 139.803,205.910 140.260,208.000 140.614 C 210.090 140.969,212.610 141.422,213.600 141.621 C 214.590 141.820,217.200 142.260,219.400 142.600 C 221.600 142.939,224.300 143.390,225.400 143.602 C 226.500 143.814,229.020 144.266,231.000 144.606 C 232.980 144.946,235.500 145.395,236.600 145.605 C 237.700 145.814,239.950 146.187,241.600 146.433 C 246.508 147.165,250.001 149.056,251.244 151.654 C 251.598 152.394,252.108 153.467,252.378 154.037 C 252.934 155.214,252.764 160.170,252.092 162.400 C 249.637 170.547,243.013 178.488,235.784 181.951 C 234.693 182.474,233.378 183.098,232.863 183.338 C 232.347 183.579,232.110 183.837,232.336 183.912 C 233.051 184.150,237.300 181.956,240.107 179.898 C 251.678 171.416,256.759 156.422,250.338 149.709 C 247.998 147.261,246.038 146.530,238.800 145.406 C 234.492 144.736,232.954 144.473,227.400 143.452 C 223.696 142.771,220.905 142.287,215.600 141.403 C 211.223 140.674,209.064 140.289,204.600 139.441 C 202.840 139.107,200.320 138.654,199.000 138.435 C 194.851 137.745,189.456 136.840,188.000 136.589 C 184.600 136.004,183.028 136.035,185.800 136.634 M81.400 163.854 C 67.911 165.590,63.067 182.421,73.431 191.543 C 80.095 197.410,91.124 195.926,96.306 188.466 C 104.157 177.163,95.034 162.099,81.400 163.854 M85.951 164.391 C 98.267 166.726,103.003 181.450,94.252 190.200 C 84.695 199.757,68.400 192.950,68.400 179.400 C 68.400 171.457,73.181 166.054,81.800 164.259 C 83.192 163.970,83.838 163.990,85.951 164.391 M177.905 238.617 C 169.486 240.919,163.587 251.037,166.441 258.281 C 171.134 270.196,184.155 273.620,192.790 265.210 C 204.091 254.202,193.050 234.477,177.905 238.617 M188.036 240.140 C 193.916 242.921,196.783 247.510,196.794 254.158 C 196.825 272.454,170.354 274.630,166.775 256.625 C 164.447 244.914,177.209 235.018,188.036 240.140 " stroke="none" fill="#fcca95" fill-rule="evenodd"></path><path id="path4" d="M217.067 51.067 C 216.496 51.637,216.839 52.007,217.574 51.614 C 217.999 51.386,218.441 51.200,218.556 51.200 C 218.671 51.200,221.433 54.755,224.694 59.100 C 236.525 74.862,242.114 82.212,242.718 82.800 C 243.515 83.576,240.699 79.537,238.814 77.200 C 238.016 76.210,236.240 73.870,234.869 72.000 C 231.601 67.544,230.127 65.600,229.177 64.497 C 228.750 64.000,228.400 63.430,228.400 63.230 C 228.400 63.030,228.263 62.807,228.096 62.733 C 227.928 62.660,226.722 61.160,225.416 59.400 C 224.109 57.640,222.941 56.110,222.820 56.000 C 222.699 55.890,222.420 55.508,222.200 55.151 C 220.080 51.713,218.042 50.091,217.067 51.067 M215.643 53.437 C 215.147 54.007,214.824 54.558,214.927 54.660 C 215.029 54.762,215.505 54.296,215.984 53.623 C 217.048 52.129,216.866 52.030,215.643 53.437 M213.650 56.606 C 213.182 57.398,212.802 58.260,212.805 58.523 C 212.807 58.785,213.262 58.209,213.814 57.243 C 214.367 56.276,214.747 55.413,214.659 55.326 C 214.571 55.238,214.117 55.814,213.650 56.606 M211.965 60.248 C 211.710 60.882,211.313 61.805,211.083 62.299 C 210.853 62.794,210.760 63.293,210.875 63.409 C 210.991 63.524,211.473 62.686,211.947 61.547 C 212.420 60.407,212.723 59.389,212.619 59.286 C 212.515 59.182,212.221 59.615,211.965 60.248 M210.217 65.173 C 209.803 65.842,209.153 69.345,208.987 71.800 C 208.855 73.752,208.962 73.454,209.560 70.200 C 209.964 68.000,210.428 65.885,210.590 65.500 C 210.898 64.770,210.618 64.524,210.217 65.173 M133.566 68.549 C 133.146 69.237,132.820 70.430,132.841 71.200 C 132.875 72.450,132.944 72.353,133.483 70.300 C 134.121 67.869,135.347 67.203,136.801 68.500 C 137.273 68.921,137.283 68.896,136.868 68.344 C 135.914 67.075,134.408 67.168,133.566 68.549 M137.633 68.957 C 138.124 69.419,140.919 70.814,141.064 70.669 C 141.283 70.451,138.497 68.800,137.910 68.800 C 137.666 68.800,137.542 68.871,137.633 68.957 M141.784 71.175 C 142.112 71.704,144.487 72.846,144.739 72.595 C 144.853 72.480,144.374 72.170,143.674 71.905 C 142.973 71.641,142.400 71.284,142.400 71.112 C 142.400 70.941,142.209 70.800,141.976 70.800 C 141.743 70.800,141.657 70.969,141.784 71.175 M145.200 72.960 C 145.200 73.235,148.091 74.842,148.267 74.666 C 148.359 74.574,147.786 74.117,146.994 73.650 C 145.549 72.797,145.200 72.663,145.200 72.960 M132.191 76.556 C 132.039 78.182,132.089 80.837,132.303 82.456 C 132.679 85.294,132.695 85.188,132.746 79.500 C 132.805 73.014,132.617 72.015,132.191 76.556 M148.800 74.960 C 148.800 75.235,151.691 76.842,151.867 76.666 C 151.959 76.574,151.386 76.117,150.594 75.650 C 149.149 74.797,148.800 74.663,148.800 74.960 M152.433 76.957 C 152.936 77.430,155.622 78.759,155.422 78.435 C 155.291 78.224,154.620 77.769,153.931 77.425 C 152.731 76.827,152.079 76.623,152.433 76.957 M156.033 78.958 C 156.125 79.045,157.100 79.614,158.200 80.224 C 159.300 80.833,160.806 81.671,161.547 82.085 C 162.288 82.500,162.971 82.763,163.064 82.669 C 163.246 82.488,161.611 81.493,159.000 80.195 C 158.120 79.758,157.340 79.265,157.267 79.100 C 157.193 78.935,156.848 78.800,156.500 78.800 C 156.152 78.800,155.942 78.871,156.033 78.958 M163.784 83.175 C 164.070 83.637,166.472 84.861,166.682 84.651 C 166.832 84.501,164.142 82.800,163.754 82.800 C 163.643 82.800,163.657 82.969,163.784 83.175 M208.982 84.800 C 209.159 87.636,209.943 91.288,210.485 91.800 C 210.781 92.079,210.821 91.898,210.617 91.200 C 210.457 90.650,209.993 88.490,209.585 86.400 C 208.991 83.348,208.872 83.033,208.982 84.800 M244.277 85.100 C 244.892 85.925,245.490 86.690,245.606 86.800 C 245.722 86.910,247.069 88.710,248.600 90.800 C 250.131 92.890,251.477 94.690,251.592 94.800 C 251.706 94.910,253.396 97.124,255.347 99.720 C 257.298 102.316,259.003 104.331,259.135 104.198 C 259.268 104.065,259.189 103.831,258.960 103.678 C 258.731 103.525,257.756 102.320,256.792 101.000 C 255.829 99.680,254.851 98.381,254.620 98.114 C 253.896 97.276,253.434 96.665,251.815 94.400 C 250.950 93.190,249.731 91.570,249.107 90.800 C 248.483 90.030,247.841 89.220,247.680 89.000 C 247.519 88.780,246.581 87.480,245.594 86.112 C 244.607 84.743,243.656 83.618,243.480 83.612 C 243.303 83.605,243.662 84.275,244.277 85.100 M167.200 84.992 C 167.200 85.097,167.939 85.561,168.842 86.021 C 169.745 86.482,170.371 86.677,170.234 86.455 C 169.849 85.832,167.200 84.555,167.200 84.992 M132.986 88.000 C 133.170 90.368,133.874 93.471,134.419 94.321 C 134.778 94.880,134.810 94.823,134.599 94.000 C 134.457 93.450,134.005 91.470,133.594 89.600 C 133.102 87.368,132.893 86.819,132.986 88.000 M170.800 86.957 C 170.800 87.081,171.520 87.529,172.400 87.954 C 173.280 88.380,174.000 88.581,174.000 88.403 C 174.000 88.224,173.415 87.847,172.700 87.565 C 171.985 87.283,171.265 86.980,171.100 86.893 C 170.935 86.805,170.800 86.834,170.800 86.957 M174.433 88.958 C 174.525 89.045,175.500 89.614,176.600 90.224 C 177.700 90.833,179.206 91.671,179.947 92.085 C 180.688 92.500,181.396 92.737,181.521 92.613 C 181.645 92.488,181.174 92.170,180.474 91.905 C 179.773 91.641,179.200 91.284,179.200 91.112 C 179.200 90.941,179.016 90.800,178.792 90.800 C 178.568 90.800,177.671 90.350,176.800 89.800 C 175.495 88.976,173.825 88.382,174.433 88.958 M182.184 93.175 C 182.470 93.637,184.872 94.861,185.082 94.651 C 185.232 94.501,182.542 92.800,182.154 92.800 C 182.043 92.800,182.057 92.969,182.184 93.175 M210.817 93.476 C 210.808 93.958,210.966 94.455,211.169 94.581 C 211.372 94.706,211.655 95.341,211.798 95.990 C 212.169 97.678,217.504 101.830,218.291 101.043 C 218.395 100.938,217.417 100.315,216.117 99.659 C 213.300 98.237,213.070 97.985,211.810 94.950 C 211.226 93.544,210.827 92.952,210.817 93.476 M185.600 94.960 C 185.600 95.235,188.491 96.842,188.667 96.666 C 188.759 96.574,188.186 96.117,187.394 95.650 C 185.949 94.797,185.600 94.663,185.600 94.960 M189.200 96.991 C 189.200 97.096,189.921 97.530,190.802 97.955 C 191.683 98.381,192.309 98.576,192.194 98.390 C 191.839 97.815,189.200 96.582,189.200 96.991 M135.616 97.874 C 135.592 98.586,136.394 100.540,136.617 100.316 C 136.725 100.209,136.547 99.509,136.222 98.761 C 135.897 98.012,135.624 97.613,135.616 97.874 M193.424 99.387 C 193.851 99.710,194.318 99.980,194.462 99.987 C 194.605 99.994,195.846 100.635,197.218 101.410 C 198.590 102.186,199.785 102.748,199.874 102.660 C 200.047 102.487,198.369 101.472,195.800 100.195 C 194.920 99.758,194.140 99.265,194.067 99.100 C 193.993 98.935,193.644 98.800,193.290 98.800 C 192.760 98.800,192.783 98.903,193.424 99.387 M136.802 101.277 C 136.800 101.996,138.395 104.938,138.649 104.684 C 138.732 104.602,138.350 103.649,137.801 102.567 C 137.252 101.485,136.803 100.905,136.802 101.277 M218.957 101.531 C 219.099 101.760,220.426 102.544,221.907 103.273 C 223.388 104.003,224.690 104.690,224.800 104.800 C 225.371 105.371,232.869 109.265,233.050 109.084 C 233.132 109.002,232.704 108.679,232.099 108.367 C 231.495 108.055,229.920 107.194,228.600 106.454 C 223.267 103.463,218.715 101.138,218.957 101.531 M200.584 103.175 C 200.912 103.704,203.287 104.846,203.539 104.595 C 203.653 104.480,203.174 104.170,202.474 103.905 C 201.773 103.641,201.200 103.284,201.200 103.112 C 201.200 102.941,201.009 102.800,200.776 102.800 C 200.543 102.800,200.457 102.969,200.584 103.175 M204.000 104.992 C 204.000 105.097,204.720 105.551,205.600 106.000 C 207.583 107.012,207.700 106.774,205.777 105.640 C 204.312 104.775,204.000 104.661,204.000 104.992 M260.280 106.300 C 262.019 108.628,263.200 109.840,263.200 109.296 C 263.200 109.023,263.065 108.796,262.900 108.791 C 262.735 108.786,261.970 107.890,261.200 106.800 C 260.430 105.710,259.656 104.814,259.480 104.809 C 259.303 104.804,259.663 105.475,260.280 106.300 M138.800 105.733 C 138.800 106.100,138.960 106.400,139.157 106.400 C 139.353 106.400,139.626 106.850,139.764 107.400 C 139.902 107.950,140.189 108.400,140.401 108.400 C 140.613 108.400,140.410 107.725,139.950 106.900 C 138.899 105.014,138.800 104.914,138.800 105.733 M207.600 106.991 C 207.600 107.096,208.321 107.530,209.202 107.955 C 210.083 108.381,210.709 108.576,210.594 108.390 C 210.239 107.815,207.600 106.582,207.600 106.991 M140.802 109.100 C 140.803 109.265,141.257 109.940,141.810 110.600 L 142.816 111.800 141.968 110.300 C 141.145 108.842,140.798 108.485,140.802 109.100 M211.233 108.957 C 211.873 109.560,214.400 110.712,214.400 110.401 C 214.400 110.189,213.950 109.902,213.400 109.764 C 212.850 109.626,212.400 109.353,212.400 109.157 C 212.400 108.960,212.100 108.800,211.733 108.800 C 211.367 108.800,211.142 108.871,211.233 108.957 M233.738 109.499 C 233.880 109.729,234.672 110.271,235.498 110.705 C 236.324 111.138,237.680 111.876,238.512 112.346 C 240.088 113.236,240.832 113.457,240.180 112.841 C 239.496 112.195,233.473 109.071,233.738 109.499 M264.000 111.200 C 264.470 111.860,264.944 112.400,265.054 112.400 C 265.164 112.400,264.870 111.860,264.400 111.200 C 263.930 110.540,263.456 110.000,263.346 110.000 C 263.236 110.000,263.530 110.540,264.000 111.200 M214.833 110.957 C 215.421 111.511,218.134 112.799,218.321 112.613 C 218.445 112.488,217.974 112.170,217.274 111.905 C 216.573 111.641,216.000 111.284,216.000 111.112 C 216.000 110.941,215.700 110.800,215.333 110.800 C 214.967 110.800,214.742 110.871,214.833 110.957 M142.813 112.117 C 142.806 112.291,142.984 112.651,143.208 112.917 C 143.432 113.183,144.062 113.940,144.608 114.600 C 148.900 119.792,148.775 119.667,155.200 125.185 C 155.970 125.846,156.810 126.390,157.067 126.394 C 157.323 126.397,157.614 126.625,157.712 126.900 C 157.810 127.175,158.013 127.287,158.164 127.148 C 158.314 127.010,157.279 126.070,155.864 125.060 C 153.094 123.084,147.352 117.574,145.400 115.021 C 143.487 112.518,142.828 111.778,142.813 112.117 M218.800 112.960 C 218.800 113.235,221.691 114.842,221.867 114.666 C 221.959 114.574,221.386 114.117,220.594 113.650 C 219.149 112.797,218.800 112.663,218.800 112.960 M268.078 116.594 C 269.655 118.681,271.023 120.310,271.120 120.213 C 271.216 120.117,271.004 119.747,270.648 119.390 C 270.291 119.034,270.000 118.621,269.999 118.471 C 269.999 118.322,269.455 117.570,268.791 116.800 C 268.127 116.030,267.183 114.816,266.692 114.103 C 266.201 113.389,265.668 112.804,265.506 112.803 C 265.344 112.801,266.502 114.507,268.078 116.594 M240.939 113.501 C 241.041 113.666,242.356 114.431,243.862 115.201 C 245.368 115.970,246.690 116.694,246.800 116.808 C 246.910 116.923,247.450 117.230,248.000 117.492 C 248.550 117.753,250.331 118.698,251.959 119.591 C 253.586 120.485,254.993 121.140,255.085 121.048 C 255.177 120.956,253.936 120.213,252.326 119.397 C 250.717 118.581,249.220 117.773,249.000 117.601 C 248.780 117.430,247.160 116.531,245.400 115.605 C 243.640 114.678,242.029 113.758,241.820 113.560 C 241.361 113.125,240.678 113.079,240.939 113.501 M222.400 114.960 C 222.400 115.235,225.291 116.842,225.467 116.666 C 225.559 116.574,224.986 116.117,224.194 115.650 C 222.749 114.797,222.400 114.663,222.400 114.960 M226.000 116.991 C 226.000 117.096,226.721 117.530,227.602 117.955 C 228.483 118.381,229.109 118.576,228.994 118.390 C 228.639 117.815,226.000 116.582,226.000 116.991 M230.224 119.387 C 230.651 119.710,231.118 119.980,231.262 119.987 C 231.405 119.994,232.620 120.620,233.962 121.378 C 235.303 122.136,236.400 122.623,236.400 122.459 C 236.400 122.177,230.208 118.800,229.691 118.800 C 229.557 118.800,229.796 119.064,230.224 119.387 M271.881 121.787 C 272.824 123.082,273.411 123.093,272.563 121.800 C 272.203 121.250,271.740 120.800,271.535 120.800 C 271.330 120.800,271.486 121.244,271.881 121.787 M255.806 121.610 C 256.092 122.072,258.487 123.246,258.704 123.030 C 258.799 122.934,258.139 122.499,257.237 122.064 C 256.335 121.628,255.691 121.424,255.806 121.610 M259.600 123.800 C 259.874 124.130,260.380 124.400,260.725 124.400 C 261.228 124.400,261.198 124.283,260.576 123.813 C 259.561 123.044,258.966 123.037,259.600 123.800 M274.810 125.400 C 275.739 126.720,276.973 128.468,277.550 129.285 C 278.128 130.101,278.756 130.776,278.947 130.785 C 279.277 130.799,277.620 128.408,276.514 127.271 C 276.232 126.981,276.000 126.619,276.000 126.467 C 276.000 126.315,275.352 125.473,274.560 124.596 C 273.172 123.059,273.181 123.088,274.810 125.400 M239.024 124.187 C 239.451 124.510,239.980 124.775,240.200 124.775 C 240.420 124.775,240.251 124.510,239.824 124.187 C 239.396 123.864,238.867 123.600,238.647 123.600 C 238.427 123.600,238.596 123.864,239.024 124.187 M240.800 124.959 C 240.800 125.082,241.520 125.551,242.400 126.000 C 243.280 126.449,244.000 126.672,244.000 126.496 C 244.000 126.320,243.415 125.925,242.700 125.619 C 241.985 125.312,241.265 124.988,241.100 124.898 C 240.935 124.807,240.800 124.835,240.800 124.959 M262.800 125.360 C 262.800 125.635,265.691 127.242,265.867 127.066 C 265.959 126.974,265.386 126.517,264.594 126.050 C 263.149 125.197,262.800 125.063,262.800 125.360 M244.976 127.413 C 245.404 127.736,245.933 128.000,246.153 128.000 C 246.373 128.000,246.204 127.736,245.776 127.413 C 245.349 127.090,244.820 126.825,244.600 126.825 C 244.380 126.825,244.549 127.090,244.976 127.413 M266.976 127.813 C 267.404 128.136,267.902 128.400,268.084 128.400 C 268.267 128.400,269.087 128.819,269.908 129.331 C 272.556 130.984,276.907 133.226,277.098 133.036 C 277.199 132.934,275.869 132.123,274.141 131.235 C 272.414 130.346,270.046 129.074,268.880 128.409 C 266.639 127.131,265.676 126.829,266.976 127.813 M247.000 128.319 C 247.694 128.982,251.200 130.798,251.196 130.492 C 251.194 130.331,250.159 129.691,248.896 129.068 C 247.633 128.446,246.780 128.109,247.000 128.319 M160.800 128.791 C 160.800 129.174,167.371 132.400,168.153 132.400 C 168.483 132.400,168.864 132.580,169.000 132.800 C 169.136 133.020,169.552 133.188,169.924 133.174 C 170.296 133.160,169.970 132.870,169.200 132.529 C 168.430 132.187,166.225 131.141,164.300 130.202 C 162.375 129.264,160.800 128.629,160.800 128.791 M252.000 130.960 C 252.000 131.235,254.891 132.842,255.067 132.666 C 255.159 132.574,254.586 132.117,253.794 131.650 C 252.349 130.797,252.000 130.663,252.000 130.960 M279.973 132.302 C 281.306 134.265,280.970 134.919,279.097 134.002 C 278.270 133.598,277.689 133.420,277.805 133.608 C 278.046 133.999,280.353 135.200,280.861 135.200 C 281.616 135.200,281.131 133.095,280.144 132.083 L 279.088 131.000 279.973 132.302 M255.600 132.927 C 255.600 133.034,256.230 133.493,257.000 133.947 C 257.770 134.401,258.400 134.628,258.400 134.451 C 258.400 134.178,257.831 133.820,255.900 132.880 C 255.735 132.799,255.600 132.821,255.600 132.927 M171.376 133.813 C 171.804 134.136,172.614 134.392,173.176 134.382 C 174.024 134.368,173.925 134.266,172.600 133.788 C 170.603 133.069,170.399 133.073,171.376 133.813 M174.600 134.800 C 174.736 135.020,175.332 135.187,175.924 135.172 C 176.885 135.147,176.914 135.107,176.200 134.800 C 175.089 134.322,174.305 134.322,174.600 134.800 M259.600 135.221 C 260.642 135.930,262.400 136.828,262.400 136.650 C 262.400 136.428,259.639 134.798,259.277 134.806 C 259.125 134.809,259.270 134.996,259.600 135.221 M178.600 135.776 C 179.480 136.086,180.920 136.328,181.800 136.316 L 183.400 136.293 181.600 135.998 C 180.610 135.836,179.170 135.594,178.400 135.459 C 177.022 135.218,177.025 135.223,178.600 135.776 M184.200 136.800 C 184.336 137.020,185.022 137.182,185.724 137.160 C 186.943 137.122,186.955 137.106,186.000 136.800 C 184.564 136.340,183.916 136.340,184.200 136.800 M262.800 136.902 C 263.334 137.467,266.000 138.742,266.000 138.432 C 266.000 138.238,265.415 137.847,264.700 137.565 C 263.985 137.283,263.220 136.971,263.000 136.871 C 262.780 136.772,262.690 136.786,262.800 136.902 M189.600 137.764 C 190.370 138.081,191.810 138.329,192.800 138.316 L 194.600 138.293 192.800 137.998 C 191.810 137.836,190.370 137.588,189.600 137.447 L 188.200 137.190 189.600 137.764 M195.200 138.800 C 195.530 139.013,196.430 139.169,197.200 139.147 L 198.600 139.105 197.400 138.800 C 195.524 138.323,194.461 138.323,195.200 138.800 M267.006 139.210 C 267.292 139.672,269.687 140.846,269.904 140.630 C 269.999 140.534,269.339 140.099,268.437 139.664 C 267.535 139.228,266.891 139.024,267.006 139.210 M201.200 139.784 C 202.410 140.104,204.030 140.350,204.800 140.330 C 206.340 140.289,204.892 139.966,200.800 139.435 C 199.072 139.211,199.088 139.225,201.200 139.784 M207.200 140.779 C 207.530 141.004,208.325 141.191,208.967 141.194 C 210.504 141.202,210.184 140.970,208.200 140.638 C 207.054 140.446,206.770 140.486,207.200 140.779 M212.120 141.606 C 212.516 141.857,213.866 142.129,215.120 142.210 C 217.291 142.352,217.314 142.344,215.600 142.043 C 214.610 141.869,213.260 141.597,212.600 141.438 C 211.610 141.200,211.526 141.229,212.120 141.606 M272.224 142.187 C 272.651 142.510,273.180 142.775,273.400 142.775 C 273.620 142.775,273.451 142.510,273.024 142.187 C 272.596 141.864,272.067 141.600,271.847 141.600 C 271.627 141.600,271.796 141.864,272.224 142.187 M218.000 142.800 C 218.330 143.013,219.320 143.169,220.200 143.147 C 221.741 143.107,221.756 143.094,220.600 142.800 C 218.732 142.325,217.264 142.325,218.000 142.800 M274.000 142.960 C 274.000 143.235,276.891 144.842,277.067 144.666 C 277.159 144.574,276.586 144.117,275.794 143.650 C 274.349 142.797,274.000 142.663,274.000 142.960 M224.200 143.792 C 225.520 144.107,227.140 144.350,227.800 144.332 C 229.207 144.294,226.645 143.731,223.600 143.409 C 222.020 143.242,222.094 143.289,224.200 143.792 M230.400 144.800 C 230.730 145.013,231.450 145.173,232.000 145.154 L 233.000 145.120 232.000 144.800 C 230.458 144.306,229.636 144.306,230.400 144.800 M277.633 144.957 C 278.136 145.430,280.822 146.759,280.622 146.435 C 280.491 146.224,279.820 145.769,279.131 145.425 C 277.931 144.827,277.279 144.623,277.633 144.957 M235.600 145.764 C 236.370 146.081,237.810 146.329,238.800 146.316 L 240.600 146.293 238.800 145.998 C 237.810 145.836,236.370 145.588,235.600 145.447 L 234.200 145.190 235.600 145.764 M241.800 146.770 C 242.460 146.962,243.720 147.293,244.600 147.505 C 245.480 147.717,246.560 148.007,247.000 148.150 C 247.440 148.293,247.080 148.063,246.200 147.640 C 245.320 147.216,243.700 146.768,242.600 146.645 C 241.082 146.474,240.889 146.505,241.800 146.770 M281.600 147.221 C 282.642 147.930,284.400 148.828,284.400 148.650 C 284.400 148.428,281.639 146.798,281.277 146.806 C 281.125 146.809,281.270 146.996,281.600 147.221 M248.000 148.603 C 248.000 148.725,248.607 149.357,249.348 150.008 C 250.089 150.659,250.985 151.778,251.339 152.496 C 251.692 153.213,251.986 153.571,251.991 153.292 C 252.006 152.449,250.152 149.792,249.041 149.064 C 248.468 148.688,248.000 148.481,248.000 148.603 M284.833 148.957 C 285.421 149.511,288.134 150.799,288.321 150.613 C 288.445 150.488,287.974 150.170,287.274 149.905 C 286.573 149.641,286.000 149.284,286.000 149.112 C 286.000 148.941,285.700 148.800,285.333 148.800 C 284.967 148.800,284.742 148.871,284.833 148.957 M288.800 150.960 C 288.800 151.235,291.691 152.842,291.867 152.666 C 291.959 152.574,291.386 152.117,290.594 151.650 C 289.149 150.797,288.800 150.663,288.800 150.960 M292.400 152.927 C 292.400 153.034,293.030 153.493,293.800 153.947 C 294.570 154.401,295.200 154.628,295.200 154.451 C 295.200 154.178,294.631 153.820,292.700 152.880 C 292.535 152.799,292.400 152.821,292.400 152.927 M252.284 156.190 C 252.512 158.401,251.810 162.976,251.102 163.887 C 250.894 164.154,250.797 164.590,250.885 164.855 C 251.042 165.325,251.413 164.489,252.344 161.572 C 252.892 159.856,252.952 154.541,252.428 154.217 C 252.206 154.080,252.148 154.876,252.284 156.190 M296.000 154.960 C 296.000 155.235,298.891 156.842,299.067 156.666 C 299.159 156.574,298.586 156.117,297.794 155.650 C 296.349 154.797,296.000 154.663,296.000 154.960 M299.600 156.991 C 299.600 157.096,300.321 157.530,301.202 157.955 C 302.083 158.381,302.709 158.576,302.594 158.390 C 302.239 157.815,299.600 156.582,299.600 156.991 M303.200 158.902 C 303.734 159.467,306.400 160.742,306.400 160.432 C 306.400 160.238,305.815 159.847,305.100 159.565 C 304.385 159.283,303.620 158.971,303.400 158.871 C 303.180 158.772,303.090 158.786,303.200 158.902 M306.833 160.957 C 307.421 161.511,310.134 162.799,310.321 162.613 C 310.445 162.488,309.974 162.170,309.274 161.905 C 308.573 161.641,308.000 161.284,308.000 161.112 C 308.000 160.941,307.700 160.800,307.333 160.800 C 306.967 160.800,306.742 160.871,306.833 160.957 M78.200 164.222 C 77.195 164.714,77.162 164.769,78.000 164.562 C 78.550 164.427,79.810 164.179,80.800 164.011 L 82.600 163.707 81.000 163.671 C 80.120 163.652,78.860 163.900,78.200 164.222 M86.400 163.962 C 87.390 164.135,88.560 164.421,89.000 164.598 C 89.641 164.854,89.705 164.815,89.324 164.402 C 89.061 164.119,87.891 163.833,86.724 163.767 L 84.600 163.647 86.400 163.962 M312.624 164.187 C 313.051 164.510,313.580 164.775,313.800 164.775 C 314.020 164.775,313.851 164.510,313.424 164.187 C 312.996 163.864,312.467 163.600,312.247 163.600 C 312.027 163.600,312.196 163.864,312.624 164.187 M74.768 165.786 C 72.878 167.026,70.946 168.984,69.761 170.862 C 68.455 172.930,68.536 173.385,69.855 171.393 C 71.416 169.036,73.188 167.257,75.100 166.128 C 76.035 165.576,76.800 165.051,76.800 164.962 C 76.800 164.618,76.144 164.884,74.768 165.786 M91.000 165.473 C 91.660 165.826,92.791 166.629,93.514 167.257 C 94.790 168.367,95.200 168.599,95.200 168.213 C 95.200 167.821,90.900 164.801,90.364 164.816 C 90.054 164.825,90.340 165.121,91.000 165.473 M314.976 165.413 C 315.404 165.736,315.933 166.000,316.153 166.000 C 316.373 166.000,316.204 165.736,315.776 165.413 C 315.349 165.090,314.820 164.825,314.600 164.825 C 314.380 164.825,314.549 165.090,314.976 165.413 M249.633 167.433 C 249.157 168.240,248.842 168.976,248.934 169.067 C 249.026 169.159,249.490 168.574,249.967 167.767 C 250.443 166.960,250.758 166.224,250.666 166.133 C 250.574 166.041,250.110 166.626,249.633 167.433 M319.338 167.836 C 320.176 168.405,320.946 168.787,321.048 168.685 C 321.238 168.495,318.573 166.800,318.084 166.800 C 317.936 166.800,318.500 167.266,319.338 167.836 M169.600 167.604 C 173.230 167.798,177.416 168.175,178.902 168.442 C 180.388 168.710,181.703 168.830,181.824 168.709 C 182.313 168.221,176.597 167.604,170.000 167.433 L 163.000 167.252 169.600 167.604 M155.000 168.217 L 153.000 168.757 154.800 168.557 C 155.790 168.447,158.040 168.217,159.800 168.046 L 163.000 167.735 160.000 167.706 C 158.350 167.690,156.100 167.920,155.000 168.217 M96.060 169.995 C 96.546 170.652,97.015 171.118,97.104 171.030 C 97.349 170.785,95.959 168.800,95.542 168.800 C 95.341 168.800,95.574 169.338,96.060 169.995 M148.800 169.425 C 146.871 170.155,148.481 170.151,150.800 169.421 C 152.344 168.934,152.429 168.856,151.400 168.874 C 150.740 168.886,149.570 169.134,148.800 169.425 M183.242 168.961 C 183.375 169.102,184.635 169.465,186.042 169.767 C 187.449 170.069,188.960 170.452,189.400 170.617 C 189.967 170.830,190.083 170.791,189.800 170.482 C 189.382 170.026,186.797 169.276,184.400 168.915 C 183.630 168.799,183.109 168.820,183.242 168.961 M321.633 168.930 C 321.725 169.001,322.430 169.466,323.200 169.963 L 324.600 170.866 323.400 169.835 C 322.740 169.268,322.035 168.803,321.833 168.802 C 321.632 168.801,321.542 168.858,321.633 168.930 M142.800 171.224 C 142.470 171.431,141.680 171.785,141.045 172.011 C 140.409 172.237,139.970 172.503,140.068 172.602 C 140.238 172.771,144.410 171.317,144.767 170.965 C 145.103 170.632,143.381 170.859,142.800 171.224 M190.833 170.946 C 191.223 171.288,195.770 172.763,195.933 172.601 C 196.150 172.384,194.164 171.600,193.398 171.600 C 193.095 171.600,192.736 171.420,192.600 171.200 C 192.464 170.980,191.973 170.800,191.510 170.800 C 191.046 170.800,190.742 170.866,190.833 170.946 M326.441 172.578 C 327.233 173.470,328.178 174.645,328.541 175.189 C 328.903 175.733,329.200 175.966,329.200 175.708 C 329.200 175.449,328.255 174.274,327.100 173.096 C 325.945 171.919,325.648 171.685,326.441 172.578 M138.000 173.200 C 138.000 173.420,137.662 173.600,137.249 173.600 C 136.836 173.600,136.260 173.915,135.968 174.300 C 135.518 174.896,135.522 174.925,135.999 174.500 C 136.308 174.225,136.850 174.000,137.204 174.000 C 138.173 174.000,139.648 172.830,138.700 172.813 C 138.315 172.806,138.000 172.980,138.000 173.200 M198.752 173.848 C 199.935 174.388,200.995 174.738,201.107 174.626 C 201.219 174.514,200.791 174.237,200.155 174.011 C 199.520 173.785,198.687 173.420,198.305 173.200 C 197.923 172.980,197.383 172.815,197.105 172.833 C 196.827 172.851,197.568 173.308,198.752 173.848 M243.496 175.695 C 242.009 177.252,240.849 178.583,240.919 178.652 C 241.116 178.850,245.569 174.405,246.023 173.557 C 246.608 172.463,246.480 172.572,243.496 175.695 M68.046 174.439 C 67.390 176.323,67.508 183.137,68.222 184.600 C 68.694 185.566,68.756 185.605,68.536 184.800 C 68.005 182.854,67.930 175.935,68.426 174.737 C 68.691 174.097,68.814 173.481,68.700 173.367 C 68.586 173.253,68.292 173.735,68.046 174.439 M98.640 175.066 C 99.008 176.599,99.200 176.744,99.200 175.490 C 99.200 174.917,99.013 174.332,98.784 174.190 C 98.511 174.021,98.462 174.323,98.640 175.066 M133.097 175.566 C 131.285 176.728,131.286 176.956,133.100 176.041 C 134.035 175.570,134.800 175.097,134.800 174.992 C 134.800 174.649,134.223 174.844,133.097 175.566 M201.600 174.991 C 201.600 175.277,204.913 176.821,205.108 176.625 C 205.201 176.532,204.506 176.083,203.564 175.628 C 201.724 174.739,201.600 174.699,201.600 174.991 M99.331 179.400 C 99.333 180.940,99.405 181.521,99.492 180.691 C 99.579 179.861,99.577 178.601,99.489 177.891 C 99.400 177.181,99.329 177.860,99.331 179.400 M129.200 177.800 C 128.430 178.325,127.575 178.764,127.300 178.777 C 127.025 178.790,126.800 178.968,126.800 179.173 C 126.800 179.378,126.485 179.646,126.100 179.769 C 125.715 179.891,124.680 180.629,123.800 181.409 C 122.661 182.418,123.309 182.102,126.048 180.314 C 128.164 178.931,130.234 177.586,130.648 177.324 C 131.061 177.061,131.220 176.847,131.000 176.847 C 130.780 176.846,129.970 177.275,129.200 177.800 M205.633 176.957 C 205.725 177.043,206.520 177.514,207.400 178.003 C 208.280 178.491,209.810 179.359,210.800 179.930 C 212.035 180.642,212.428 180.754,212.051 180.284 C 211.749 179.908,211.254 179.600,210.951 179.600 C 210.648 179.600,210.400 179.420,210.400 179.200 C 210.400 178.980,210.216 178.800,209.992 178.800 C 209.768 178.800,208.871 178.350,208.000 177.800 C 206.697 176.977,205.021 176.381,205.633 176.957 M329.294 178.600 C 329.291 180.241,329.362 180.445,329.690 179.736 C 329.955 179.163,329.957 178.488,329.694 177.736 C 329.334 176.702,329.298 176.780,329.294 178.600 M239.101 179.537 C 238.496 179.901,238.001 180.347,238.001 180.527 C 238.000 180.707,238.540 180.470,239.200 180.000 C 240.977 178.734,240.915 178.442,239.101 179.537 M212.800 180.927 C 212.800 181.126,215.503 182.800,215.823 182.800 C 216.466 182.800,215.785 182.083,214.700 181.619 C 213.985 181.312,213.265 180.988,213.100 180.898 C 212.935 180.807,212.800 180.821,212.800 180.927 M235.457 181.667 C 234.608 182.096,234.002 182.535,234.110 182.643 C 234.274 182.807,237.030 181.463,237.567 180.957 C 237.964 180.583,236.880 180.948,235.457 181.667 M98.448 184.400 C 97.391 187.928,92.882 192.877,89.600 194.111 C 89.119 194.292,89.112 194.343,89.565 194.368 C 92.323 194.523,99.648 186.015,99.118 183.274 C 99.046 182.903,98.745 183.410,98.448 184.400 M120.404 183.904 C 118.667 185.267,117.491 186.425,117.667 186.599 C 117.740 186.672,118.790 185.852,120.000 184.778 C 122.400 182.648,122.625 182.161,120.404 183.904 M216.907 183.236 C 220.159 185.129,231.023 185.137,232.912 183.248 C 233.434 182.726,232.761 182.622,232.180 183.135 C 230.504 184.615,219.454 184.622,217.820 183.144 C 217.611 182.955,217.161 182.805,216.820 182.812 C 216.313 182.822,216.329 182.900,216.907 183.236 M328.000 183.104 C 328.000 183.703,324.572 186.925,322.277 188.484 C 320.991 189.357,320.028 190.162,320.138 190.271 C 320.459 190.593,324.849 187.228,326.700 185.242 C 328.252 183.576,328.729 182.800,328.200 182.800 C 328.090 182.800,328.000 182.937,328.000 183.104 M68.800 186.113 C 68.800 187.295,73.917 193.200,74.942 193.200 C 75.146 193.200,74.464 192.453,73.426 191.539 C 72.389 190.626,70.923 188.964,70.170 187.845 C 69.416 186.726,68.800 185.947,68.800 186.113 M317.800 191.390 C 316.920 191.932,316.325 192.381,316.477 192.388 C 316.824 192.403,319.600 190.779,319.600 190.560 C 319.600 190.300,319.476 190.357,317.800 191.390 M111.582 192.300 C 110.314 193.791,108.714 196.000,108.904 196.000 C 109.013 196.000,109.949 195.010,110.982 193.800 C 112.016 192.590,112.708 191.600,112.520 191.600 C 112.332 191.600,111.910 191.915,111.582 192.300 M76.067 193.881 C 76.304 194.167,76.800 194.400,77.169 194.400 C 77.538 194.400,78.034 194.594,78.271 194.831 C 78.508 195.068,79.147 195.203,79.691 195.131 C 80.434 195.032,80.054 194.797,78.158 194.181 C 76.479 193.636,75.781 193.536,76.067 193.881 M313.380 193.544 C 313.171 193.734,311.332 194.571,309.293 195.404 C 305.536 196.940,304.482 197.629,307.458 196.604 C 309.648 195.849,314.400 193.659,314.400 193.405 C 314.400 193.083,313.798 193.165,313.380 193.544 M87.200 194.800 L 86.200 195.120 87.276 195.160 C 87.868 195.182,88.464 195.020,88.600 194.800 C 88.881 194.345,88.620 194.345,87.200 194.800 M82.300 195.489 C 83.015 195.578,84.185 195.578,84.900 195.489 C 85.615 195.401,85.030 195.328,83.600 195.328 C 82.170 195.328,81.585 195.401,82.300 195.489 M107.419 197.700 C 106.815 198.415,106.130 199.405,105.896 199.900 C 105.663 200.395,105.320 200.800,105.136 200.800 C 104.951 200.800,104.800 200.984,104.800 201.208 C 104.800 201.432,104.337 202.349,103.771 203.246 C 103.205 204.142,102.823 204.957,102.923 205.056 C 103.022 205.155,103.600 204.373,104.208 203.318 C 104.816 202.263,106.107 200.275,107.077 198.900 C 108.999 196.175,109.148 195.651,107.419 197.700 M301.494 198.388 C 299.785 198.988,298.270 199.596,298.127 199.740 C 297.984 199.883,297.507 200.000,297.067 200.000 C 296.627 200.000,296.386 200.119,296.532 200.265 C 296.809 200.542,301.118 199.272,301.780 198.718 C 301.989 198.543,302.529 198.394,302.980 198.387 C 303.431 198.380,304.149 198.110,304.576 197.787 C 305.604 197.010,305.181 197.092,301.494 198.388 M292.000 201.594 C 291.670 201.784,290.540 202.158,289.489 202.425 C 288.437 202.692,287.671 203.005,287.787 203.120 C 288.025 203.358,290.804 202.588,292.600 201.787 C 293.260 201.492,293.530 201.250,293.200 201.249 C 292.870 201.248,292.330 201.403,292.000 201.594 M285.487 203.446 C 285.351 203.582,284.646 203.833,283.920 204.005 C 282.854 204.258,282.792 204.320,283.600 204.329 C 284.886 204.342,287.770 203.274,286.567 203.230 C 286.108 203.214,285.622 203.311,285.487 203.446 M281.000 204.800 C 280.229 205.131,280.231 205.145,281.076 205.172 C 281.558 205.187,282.064 205.020,282.200 204.800 C 282.492 204.327,282.101 204.327,281.000 204.800 M277.776 205.787 C 276.766 206.551,277.204 206.559,278.654 205.802 C 279.284 205.474,279.519 205.204,279.176 205.202 C 278.834 205.201,278.204 205.464,277.776 205.787 M101.633 207.034 C 101.157 207.841,100.836 208.704,100.921 208.951 C 101.006 209.198,101.462 208.604,101.935 207.631 C 103.000 205.439,102.803 205.050,101.633 207.034 M276.031 208.431 C 275.577 209.370,275.282 210.215,275.375 210.308 C 275.468 210.401,275.915 209.709,276.369 208.769 C 276.823 207.830,277.118 206.985,277.025 206.892 C 276.932 206.799,276.485 207.491,276.031 208.431 M100.003 210.645 C 99.772 211.280,99.377 212.205,99.124 212.699 C 98.872 213.194,98.760 213.693,98.875 213.809 C 98.991 213.924,99.473 213.086,99.947 211.947 C 100.420 210.807,100.721 209.788,100.615 209.682 C 100.509 209.576,100.234 210.009,100.003 210.645 M274.086 212.686 C 273.612 213.715,273.280 214.613,273.348 214.681 C 273.416 214.749,273.889 213.993,274.400 213.000 C 274.911 212.007,275.243 211.109,275.138 211.004 C 275.033 210.899,274.559 211.656,274.086 212.686 M180.900 213.076 C 181.285 213.176,181.915 213.176,182.300 213.076 C 182.685 212.975,182.370 212.893,181.600 212.893 C 180.830 212.893,180.515 212.975,180.900 213.076 M175.122 213.411 C 175.006 213.528,174.121 213.778,173.155 213.968 C 171.475 214.298,171.460 214.313,172.800 214.325 C 174.562 214.342,177.969 213.307,176.367 213.242 C 175.798 213.219,175.238 213.295,175.122 213.411 M187.400 213.776 C 188.500 214.100,189.940 214.352,190.600 214.336 C 191.997 214.303,189.958 213.768,187.000 213.391 C 185.493 213.199,185.517 213.221,187.400 213.776 M98.011 215.371 C 97.785 215.965,97.600 216.790,97.600 217.202 C 97.600 217.615,97.420 218.064,97.200 218.200 C 96.980 218.336,96.814 218.932,96.832 219.524 C 96.857 220.395,96.973 220.257,97.441 218.800 C 97.758 217.810,98.191 216.472,98.402 215.826 C 98.893 214.326,98.557 213.935,98.011 215.371 M167.800 215.429 C 166.480 215.972,165.850 216.306,166.400 216.170 C 168.857 215.565,170.784 214.949,171.047 214.686 C 171.607 214.126,170.164 214.456,167.800 215.429 M192.200 214.800 C 192.336 215.020,192.842 215.197,193.324 215.194 C 194.036 215.189,194.088 215.115,193.600 214.800 C 192.812 214.291,191.885 214.291,192.200 214.800 M195.546 215.816 C 196.286 216.137,197.096 216.393,197.346 216.384 C 197.596 216.376,197.194 216.106,196.454 215.784 C 195.714 215.463,194.904 215.207,194.654 215.216 C 194.404 215.224,194.806 215.494,195.546 215.816 M272.000 216.800 C 270.884 218.987,271.189 219.292,272.338 217.138 C 272.823 216.230,273.138 215.405,273.038 215.305 C 272.938 215.204,272.471 215.877,272.000 216.800 M159.319 219.708 C 153.256 223.814,144.537 233.200,146.786 233.200 C 147.014 233.200,147.200 232.997,147.200 232.749 C 147.200 230.334,159.777 218.400,162.321 218.400 C 162.531 218.400,162.926 218.130,163.200 217.800 C 164.152 216.653,162.978 217.230,159.319 219.708 M202.023 218.697 C 202.036 218.863,203.312 219.810,204.859 220.800 C 207.413 222.435,210.233 225.006,213.635 228.800 C 214.798 230.097,214.829 230.110,214.066 228.968 C 212.552 226.704,207.809 222.119,205.374 220.567 C 204.728 220.155,204.110 219.724,204.000 219.609 C 203.539 219.127,202.002 218.417,202.023 218.697 M96.045 222.894 C 95.770 224.156,95.621 225.686,95.713 226.294 C 95.854 227.229,95.889 227.178,95.940 225.960 C 95.973 225.168,96.195 223.961,96.433 223.278 C 96.671 222.595,96.793 221.713,96.705 221.318 C 96.616 220.923,96.319 221.632,96.045 222.894 M268.680 223.715 C 267.866 225.385,267.200 226.886,267.200 227.052 C 267.200 227.568,268.374 225.829,268.387 225.292 C 268.394 225.013,268.861 224.054,269.424 223.163 C 269.987 222.271,270.383 221.348,270.304 221.111 C 270.225 220.874,269.494 222.046,268.680 223.715 M94.989 228.501 C 94.281 231.324,95.327 247.171,96.383 249.600 C 96.803 250.568,96.810 250.561,96.601 249.400 C 95.626 243.997,95.400 241.264,95.400 234.900 C 95.400 227.382,95.373 226.970,94.989 228.501 M266.031 229.231 C 265.577 230.170,265.262 230.995,265.331 231.065 C 265.400 231.134,265.854 230.447,266.338 229.538 C 266.823 228.630,267.138 227.805,267.038 227.705 C 266.938 227.605,266.485 228.291,266.031 229.231 M216.130 232.400 C 216.877 233.610,217.616 235.005,217.771 235.500 C 217.927 235.995,218.212 236.400,218.406 236.400 C 218.853 236.400,216.895 232.718,215.686 231.284 C 215.173 230.676,215.369 231.167,216.130 232.400 M263.704 233.884 C 263.431 234.466,263.282 235.015,263.372 235.105 C 263.612 235.346,264.473 233.618,264.326 233.191 C 264.257 232.990,263.977 233.302,263.704 233.884 M145.657 234.457 C 145.375 234.909,145.232 235.366,145.340 235.473 C 145.447 235.581,145.744 235.278,146.000 234.800 C 146.605 233.670,146.324 233.390,145.657 234.457 M144.071 237.643 C 142.972 240.218,142.291 242.425,142.524 242.657 C 142.635 242.769,142.844 242.442,142.987 241.930 C 143.323 240.726,144.374 238.007,144.869 237.061 C 145.081 236.655,145.157 236.224,145.038 236.104 C 144.918 235.985,144.483 236.677,144.071 237.643 M261.657 238.057 C 261.375 238.509,261.232 238.966,261.340 239.073 C 261.447 239.181,261.744 238.878,262.000 238.400 C 262.605 237.270,262.324 236.990,261.657 238.057 M182.000 237.958 C 183.210 238.134,184.650 238.416,185.200 238.584 C 185.938 238.810,186.088 238.771,185.772 238.437 C 185.536 238.187,184.096 237.906,182.572 237.811 C 179.925 237.646,179.899 237.652,182.000 237.958 M177.600 238.400 C 176.805 238.914,177.804 238.914,179.000 238.400 L 179.800 238.056 179.000 238.034 C 178.560 238.022,177.930 238.187,177.600 238.400 M173.200 240.284 C 171.990 241.072,170.471 242.366,169.824 243.159 C 168.672 244.571,168.685 244.566,170.424 242.945 C 171.401 242.035,173.190 240.731,174.400 240.049 C 175.610 239.366,176.330 238.817,176.000 238.829 C 175.670 238.841,174.410 239.496,173.200 240.284 M187.200 238.902 C 187.734 239.467,190.400 240.742,190.400 240.432 C 190.400 240.238,189.815 239.847,189.100 239.565 C 188.385 239.283,187.620 238.971,187.400 238.871 C 187.180 238.772,187.090 238.786,187.200 238.902 M219.634 239.200 C 219.637 239.939,220.722 242.377,220.768 241.746 C 220.785 241.496,220.537 240.686,220.216 239.946 C 219.894 239.206,219.632 238.870,219.634 239.200 M260.057 241.457 C 258.893 243.853,259.191 244.151,260.400 241.800 C 260.911 240.807,261.243 239.910,261.140 239.806 C 261.036 239.702,260.549 240.445,260.057 241.457 M191.931 241.900 C 192.647 242.505,193.630 243.459,194.116 244.019 C 194.602 244.579,194.830 244.759,194.622 244.419 C 193.951 243.323,191.450 240.800,191.034 240.800 C 190.812 240.800,191.216 241.295,191.931 241.900 M220.828 243.676 C 220.813 244.268,220.980 244.864,221.200 245.000 C 221.678 245.295,221.678 244.511,221.200 243.400 C 220.893 242.686,220.853 242.715,220.828 243.676 M141.671 245.385 C 141.380 246.644,141.220 247.753,141.316 247.849 C 141.593 248.127,142.491 244.568,142.339 243.796 C 142.262 243.410,141.962 244.126,141.671 245.385 M258.031 245.631 C 257.577 246.570,257.282 247.415,257.375 247.508 C 257.468 247.601,257.915 246.909,258.369 245.969 C 258.823 245.030,259.118 244.185,259.025 244.092 C 258.932 243.999,258.485 244.691,258.031 245.631 M167.773 245.700 C 167.619 246.195,167.314 246.714,167.097 246.854 C 166.880 246.993,166.774 247.322,166.861 247.583 C 166.948 247.845,167.411 247.326,167.890 246.430 C 168.368 245.533,168.601 244.800,168.407 244.800 C 168.213 244.800,167.928 245.205,167.773 245.700 M195.656 246.545 C 195.939 247.175,196.242 247.473,196.331 247.206 C 196.420 246.940,196.189 246.424,195.818 246.061 C 195.186 245.442,195.176 245.473,195.656 246.545 M221.827 247.800 C 221.929 249.120,222.113 251.370,222.236 252.800 C 222.368 254.337,222.208 256.954,221.846 259.200 C 220.709 266.251,220.753 265.880,221.171 264.928 C 222.676 261.500,223.079 253.119,222.014 247.400 L 221.641 245.400 221.827 247.800 M254.990 251.883 C 253.939 254.038,252.920 256.115,252.725 256.500 C 252.531 256.885,252.513 257.195,252.686 257.190 C 253.041 257.178,254.400 254.387,254.400 253.669 C 254.400 253.411,254.580 253.200,254.800 253.200 C 255.020 253.200,255.200 253.019,255.200 252.798 C 255.200 252.577,255.649 251.466,256.197 250.329 C 256.746 249.192,257.128 248.195,257.047 248.114 C 256.966 248.033,256.040 249.729,254.990 251.883 M165.979 249.845 C 165.356 251.471,165.639 258.212,166.359 258.881 C 166.829 259.317,166.863 259.273,166.573 258.600 C 166.013 257.301,165.889 250.955,166.405 249.991 C 166.658 249.518,166.765 249.032,166.644 248.910 C 166.522 248.789,166.223 249.209,165.979 249.845 M140.946 253.800 C 140.947 256.000,141.014 256.849,141.095 255.687 C 141.176 254.524,141.176 252.724,141.093 251.687 C 141.011 250.649,140.945 251.600,140.946 253.800 M197.389 254.034 C 197.383 255.794,197.505 256.911,197.661 256.517 C 198.021 255.604,198.028 252.412,197.672 251.517 C 197.522 251.141,197.395 252.274,197.389 254.034 M96.838 251.600 C 96.816 252.108,97.212 253.470,98.224 256.357 C 98.331 256.664,98.492 256.841,98.582 256.751 C 98.672 256.661,98.322 255.330,97.805 253.794 C 97.287 252.257,96.852 251.270,96.838 251.600 M98.821 257.825 C 98.792 258.407,100.415 261.719,100.625 261.508 C 100.719 261.415,100.355 260.452,99.818 259.369 C 99.281 258.286,98.833 257.591,98.821 257.825 M247.675 266.875 C 245.206 271.960,243.259 276.192,243.347 276.280 C 243.436 276.369,244.630 274.137,246.001 271.321 C 247.373 268.504,249.396 264.348,250.498 262.084 C 251.600 259.820,252.425 257.892,252.333 257.799 C 252.240 257.707,250.144 261.791,247.675 266.875 M196.086 260.286 C 195.612 261.315,195.299 262.232,195.390 262.323 C 195.480 262.414,195.948 261.651,196.429 260.629 C 196.909 259.606,197.223 258.689,197.125 258.591 C 197.027 258.494,196.559 259.256,196.086 260.286 M141.244 260.400 C 141.239 260.730,141.485 261.900,141.791 263.000 C 142.096 264.100,142.355 264.640,142.367 264.200 C 142.378 263.760,142.133 262.590,141.821 261.600 C 141.509 260.610,141.249 260.070,141.244 260.400 M166.800 260.533 C 166.800 260.900,166.960 261.200,167.157 261.200 C 167.353 261.200,167.626 261.650,167.764 262.200 C 167.902 262.750,168.189 263.200,168.401 263.200 C 168.613 263.200,168.410 262.525,167.950 261.700 C 166.899 259.814,166.800 259.714,166.800 260.533 M100.816 262.263 C 100.796 262.847,102.888 266.954,103.296 267.133 C 103.463 267.207,103.600 267.500,103.600 267.784 C 103.600 268.069,103.870 268.526,104.200 268.800 C 105.041 269.498,104.947 268.929,104.000 267.600 C 103.560 266.981,102.667 265.424,102.016 264.138 C 101.365 262.852,100.825 262.008,100.816 262.263 M192.811 265.130 C 191.340 266.656,191.068 267.063,191.982 266.371 C 193.140 265.495,195.605 262.740,195.151 262.830 C 195.068 262.846,194.015 263.881,192.811 265.130 M170.200 265.165 C 171.858 266.937,175.352 269.201,176.400 269.182 C 176.730 269.176,176.100 268.733,175.000 268.198 C 173.900 267.663,172.010 266.377,170.800 265.340 L 168.600 263.455 170.200 265.165 M142.412 265.600 C 142.412 265.930,142.587 266.470,142.800 266.800 C 143.145 267.333,143.188 267.333,143.188 266.800 C 143.188 266.470,143.013 265.930,142.800 265.600 C 142.455 265.067,142.412 265.067,142.412 265.600 M219.986 267.600 C 219.697 268.590,219.286 269.629,219.073 269.910 C 218.860 270.190,218.771 270.505,218.876 270.609 C 218.980 270.713,219.276 270.349,219.533 269.799 C 219.790 269.250,220.201 268.368,220.446 267.839 C 220.692 267.311,220.807 266.636,220.703 266.339 C 220.598 266.043,220.276 266.610,219.986 267.600 M188.400 268.219 C 187.410 268.733,186.797 269.163,187.039 269.176 C 187.622 269.208,189.923 268.048,190.216 267.575 C 190.499 267.116,190.586 267.085,188.400 268.219 M143.217 268.000 C 143.231 268.717,144.365 270.800,144.386 270.146 C 144.394 269.896,144.131 269.176,143.802 268.546 C 143.474 267.916,143.210 267.670,143.217 268.000 M178.200 269.782 C 179.723 270.521,183.379 270.512,185.200 269.764 L 186.600 269.190 185.200 269.470 C 183.358 269.840,180.587 269.847,178.600 269.488 L 177.000 269.199 178.200 269.782 M104.800 269.967 C 104.800 270.168,104.935 270.393,105.100 270.467 C 105.265 270.540,106.255 271.877,107.301 273.438 C 108.346 275.000,109.601 276.620,110.090 277.038 C 110.871 277.707,110.853 277.628,109.946 276.400 C 109.378 275.630,108.063 273.785,107.025 272.300 C 105.159 269.629,104.800 269.253,104.800 269.967 M217.779 272.500 C 217.418 273.680,213.533 279.600,213.120 279.600 C 212.944 279.600,212.800 279.823,212.800 280.096 C 212.800 280.804,214.411 278.971,216.050 276.399 C 217.883 273.522,218.823 271.600,218.396 271.600 C 218.208 271.600,217.930 272.005,217.779 272.500 M145.225 272.600 C 145.225 272.820,145.490 273.349,145.813 273.776 C 146.136 274.204,146.400 274.373,146.400 274.153 C 146.400 273.933,146.136 273.404,145.813 272.976 C 145.490 272.549,145.225 272.380,145.225 272.600 M147.213 276.267 C 147.206 276.523,147.335 276.793,147.500 276.867 C 147.665 276.940,148.579 278.024,149.530 279.276 C 150.482 280.528,151.558 281.788,151.923 282.076 C 152.287 282.364,151.958 281.791,151.192 280.801 C 147.807 276.428,147.228 275.768,147.213 276.267 M110.800 278.281 C 110.800 279.047,180.645 348.400,181.416 348.400 C 183.278 348.400,188.430 340.631,188.386 337.889 C 188.377 337.356,188.082 337.801,187.648 339.000 C 186.129 343.200,182.759 348.000,181.330 348.000 C 180.674 348.000,113.363 280.902,112.211 279.100 C 111.556 278.075,110.800 277.637,110.800 278.281 M241.657 279.257 C 241.375 279.709,241.232 280.166,241.340 280.273 C 241.447 280.381,241.744 280.078,242.000 279.600 C 242.605 278.470,242.324 278.190,241.657 279.257 M201.500 291.551 C 194.509 298.559,190.800 302.560,190.800 303.093 C 190.800 303.890,192.657 305.477,193.086 305.047 C 193.206 304.928,192.830 304.614,192.252 304.351 C 190.346 303.482,191.007 302.620,202.023 291.614 C 207.975 285.666,212.700 280.805,212.523 280.812 C 212.345 280.818,207.385 285.651,201.500 291.551 M240.186 282.173 C 239.842 282.995,239.044 284.735,238.413 286.038 C 237.782 287.341,237.431 288.304,237.634 288.179 C 237.836 288.054,238.383 287.107,238.848 286.076 C 239.314 285.044,240.032 283.494,240.445 282.631 C 240.857 281.767,241.108 280.975,241.002 280.869 C 240.897 280.764,240.529 281.350,240.186 282.173 M152.800 282.877 C 152.800 282.987,153.160 283.493,153.600 284.000 C 154.040 284.507,154.400 284.743,154.400 284.523 C 154.400 284.304,154.040 283.798,153.600 283.400 C 153.160 283.002,152.800 282.766,152.800 282.877 M154.800 284.877 C 154.800 284.987,155.160 285.493,155.600 286.000 C 156.040 286.507,156.400 286.743,156.400 286.523 C 156.400 286.304,156.040 285.798,155.600 285.400 C 155.160 285.002,154.800 284.766,154.800 284.877 M156.800 286.877 C 156.800 286.987,157.160 287.493,157.600 288.000 C 158.040 288.507,158.400 288.743,158.400 288.523 C 158.400 288.304,158.040 287.798,157.600 287.400 C 157.160 287.002,156.800 286.766,156.800 286.877 M158.800 288.877 C 158.800 288.987,159.160 289.493,159.600 290.000 C 160.040 290.507,160.400 290.743,160.400 290.523 C 160.400 290.304,160.040 289.798,159.600 289.400 C 159.160 289.002,158.800 288.766,158.800 288.877 M235.579 291.268 C 235.261 291.732,234.579 292.626,234.064 293.256 C 233.550 293.885,233.290 294.400,233.487 294.400 C 233.884 294.400,236.531 290.797,236.302 290.569 C 236.223 290.490,235.898 290.805,235.579 291.268 M160.800 290.877 C 160.800 290.987,161.160 291.493,161.600 292.000 C 162.040 292.507,162.400 292.743,162.400 292.523 C 162.400 292.304,162.040 291.798,161.600 291.400 C 161.160 291.002,160.800 290.766,160.800 290.877 M162.800 292.877 C 162.800 292.987,163.160 293.493,163.600 294.000 C 164.040 294.507,164.400 294.743,164.400 294.523 C 164.400 294.304,164.040 293.798,163.600 293.400 C 163.160 293.002,162.800 292.766,162.800 292.877 M230.600 297.052 C 228.159 299.306,224.292 302.031,221.400 303.533 C 220.520 303.990,220.002 304.373,220.250 304.382 C 221.594 304.435,227.802 300.212,231.200 296.933 C 234.097 294.138,233.663 294.224,230.600 297.052 M166.800 296.877 C 166.800 296.987,167.160 297.493,167.600 298.000 C 168.040 298.507,168.400 298.743,168.400 298.523 C 168.400 298.304,168.040 297.798,167.600 297.400 C 167.160 297.002,166.800 296.766,166.800 296.877 M170.800 300.877 C 170.800 300.987,171.160 301.493,171.600 302.000 C 172.040 302.507,172.400 302.743,172.400 302.523 C 172.400 302.304,172.040 301.798,171.600 301.400 C 171.160 301.002,170.800 300.766,170.800 300.877 M217.600 305.089 C 216.830 305.432,215.030 306.031,213.600 306.420 C 212.170 306.809,211.437 307.144,211.972 307.164 C 213.317 307.214,218.450 305.525,219.380 304.726 C 219.964 304.225,219.183 304.384,217.600 305.089 M174.800 304.877 C 174.800 304.987,175.160 305.493,175.600 306.000 C 176.040 306.507,176.400 306.743,176.400 306.523 C 176.400 306.304,176.040 305.798,175.600 305.400 C 175.160 305.002,174.800 304.766,174.800 304.877 M193.770 305.552 C 194.048 306.001,197.719 307.210,198.675 307.167 C 199.074 307.150,198.379 306.835,197.131 306.467 C 195.883 306.100,194.728 305.665,194.565 305.500 C 194.149 305.081,193.505 305.123,193.770 305.552 M201.000 307.623 C 203.054 308.048,207.346 308.048,209.400 307.623 C 210.526 307.390,209.282 307.292,205.200 307.292 C 201.118 307.292,199.874 307.390,201.000 307.623 M178.800 308.877 C 178.800 308.987,179.160 309.493,179.600 310.000 C 180.040 310.507,180.400 310.743,180.400 310.523 C 180.400 310.304,180.040 309.798,179.600 309.400 C 179.160 309.002,178.800 308.766,178.800 308.877 M184.562 315.500 C 185.748 317.156,187.507 320.555,188.133 322.400 C 188.297 322.882,188.343 322.867,188.368 322.324 C 188.435 320.900,184.401 313.600,183.548 313.600 C 183.357 313.600,183.814 314.455,184.562 315.500 M188.663 324.480 C 189.000 326.249,189.200 326.401,189.200 324.890 C 189.200 324.207,189.023 323.538,188.806 323.404 C 188.560 323.252,188.506 323.655,188.663 324.480 M189.320 330.000 C 189.320 331.210,189.395 331.705,189.487 331.100 C 189.578 330.495,189.578 329.505,189.487 328.900 C 189.395 328.295,189.320 328.790,189.320 330.000 M188.860 334.667 C 188.827 335.144,188.684 335.864,188.541 336.267 C 188.342 336.831,188.395 336.896,188.772 336.549 C 189.042 336.301,189.185 335.581,189.091 334.949 C 188.970 334.139,188.902 334.056,188.860 334.667 " stroke="none" fill="#fce5c6" fill-rule="evenodd"></path></g></svg>