<?xml version="1.0" encoding="UTF-8" standalone="no"?>
<!-- Created with Inkscape (http://www.inkscape.org/) -->

<svg
   xmlns:dc="http://purl.org/dc/elements/1.1/"
   xmlns:cc="http://creativecommons.org/ns#"
   xmlns:rdf="http://www.w3.org/1999/02/22-rdf-syntax-ns#"
   xmlns:svg="http://www.w3.org/2000/svg"
   xmlns="http://www.w3.org/2000/svg"
   xmlns:sodipodi="http://sodipodi.sourceforge.net/DTD/sodipodi-0.dtd"
   xmlns:inkscape="http://www.inkscape.org/namespaces/inkscape"
   width="16.515709mm"
   height="14.851148mm"
   viewBox="0 0 16.515709 14.851148"
   version="1.1"
   id="svg5020"
   inkscape:version="0.92.4 (33fec40, 2019-01-16)"
   sodipodi:docname="bitbucket.svg">
  <defs
     id="defs5014">
    <style
       id="style5103">.cls-1{fill:#253858;}.cls-2{fill:none;}.cls-3{fill:#2684ff;}.cls-4{fill:url(#New_Gradient_Swatch_1);}</style>
    <linearGradient
       gradientUnits="userSpaceOnUse"
       y2="54.48"
       x2="32.990002"
       y1="30.27"
       x1="64.010002"
       id="New_Gradient_Swatch_1"
       gradientTransform="matrix(0.26458333,0,0,0.26458333,47.174653,140.4628)">
      <stop
         id="stop5105"
         stop-color="#0052cc"
         offset="0.18" />
      <stop
         id="stop5107"
         stop-color="#2684ff"
         offset="1" />
    </linearGradient>
  </defs>
  <sodipodi:namedview
     id="base"
     pagecolor="#ffffff"
     bordercolor="#666666"
     borderopacity="1.0"
     inkscape:pageopacity="0.0"
     inkscape:pageshadow="2"
     inkscape:zoom="0.35"
     inkscape:cx="221.72789"
     inkscape:cy="30.753488"
     inkscape:document-units="mm"
     inkscape:current-layer="layer1"
     showgrid="false"
     inkscape:window-width="2560"
     inkscape:window-height="1311"
     inkscape:window-x="0"
     inkscape:window-y="55"
     inkscape:window-maximized="1" />
  <metadata
     id="metadata5017">
    <rdf:RDF>
      <cc:Work
         rdf:about="">
        <dc:format>image/svg+xml</dc:format>
        <dc:type
           rdf:resource="http://purl.org/dc/dcmitype/StillImage" />
        <dc:title></dc:title>
      </cc:Work>
    </rdf:RDF>
  </metadata>
  <g
     inkscape:label="Layer 1"
     inkscape:groupmode="layer"
     id="layer1"
     transform="translate(-47.167829,-142.11905)">
    <polygon
       id="polygon5132"
       points="24.7,43.51 37.75,43.51 40.9,25.12 21.23,25.12 "
       class="cls-2"
       style="fill:none"
       transform="matrix(0.26458333,0,0,0.26458333,47.174653,140.4628)" />
    <path
       id="path5134"
       d="m 47.70382,142.11909 a 0.52916666,0.52916666 0 0 0 -0.529167,0.61383 l 2.246312,13.63663 a 0.71966666,0.71966666 0 0 0 0.703792,0.6006 h 10.776479 a 0.52916666,0.52916666 0 0 0 0.529167,-0.4445 l 2.246312,-13.79008 a 0.52916666,0.52916666 0 0 0 -0.529166,-0.61383 z m 9.458854,9.85573 H 53.72309 l -0.931333,-4.86569 h 5.204354 z"
       class="cls-3"
       inkscape:connector-curvature="0"
       style="fill:#2684ff;stroke-width:0.26458332" />
    <path
       id="path5136"
       d="m 62.96234,147.10913 h -4.966229 l -0.833437,4.86569 H 53.72309 l -4.061354,4.82071 a 0.71702082,0.71702082 0 0 0 0.463021,0.17462 h 10.779125 a 0.52916666,0.52916666 0 0 0 0.529167,-0.4445 z"
       class="cls-4"
       inkscape:connector-curvature="0"
       style="fill:url(#New_Gradient_Swatch_1);stroke-width:0.26458332" />
  </g>
</svg>
