<?xml version="1.0" encoding="UTF-8" standalone="no"?>
<!-- Created with Inkscape (http://www.inkscape.org/) -->

<svg
   xmlns:dc="http://purl.org/dc/elements/1.1/"
   xmlns:cc="http://creativecommons.org/ns#"
   xmlns:rdf="http://www.w3.org/1999/02/22-rdf-syntax-ns#"
   xmlns:svg="http://www.w3.org/2000/svg"
   xmlns="http://www.w3.org/2000/svg"
   xmlns:xlink="http://www.w3.org/1999/xlink"
   xmlns:sodipodi="http://sodipodi.sourceforge.net/DTD/sodipodi-0.dtd"
   xmlns:inkscape="http://www.inkscape.org/namespaces/inkscape"
   width="9.5306559mm"
   height="10.840243mm"
   viewBox="0 0 9.5306558 10.840243"
   version="1.1"
   id="svg4035"
   inkscape:version="0.92.4 (33fec40, 2019-01-16)"
   sodipodi:docname="bunnycdn.svg">
  <defs
     id="defs4029">
    <rect
       height="297.63199"
       width="297.63199"
       y="-91.467003"
       x="-69.157997"
       id="SVGID_1_" />
    <path
       d="m 15.876,11.687 8.322,1.439 C 17.956,12.046 17.572,6.852 9.174,2.283 c -0.917,3.029 0.982,8.492 6.702,9.404"
       id="SVGID_3_"
       inkscape:connector-curvature="0" />
    <path
       d="m 9.174,2.283 c 8.398,4.568 8.782,9.763 15.024,10.843 3.133,0.542 0.304,5.888 -3.038,5.324 6.004,2.041 11.482,-3.399 8.349,-5.105 z"
       id="SVGID_6_"
       inkscape:connector-curvature="0" />
    <path
       d="m 21.166,18.45 c -0.001,0 -0.004,0 -0.005,0 -0.393,-0.067 -0.793,-0.214 -1.192,-0.463 -2.512,-1.563 -5.04,-2.069 -7.328,-1.822 4.775,0.584 9.316,6.838 8.752,11.467 0.099,1.581 -0.456,3.192 -1.663,4.399 l -2.755,2.755 c 2.125,1.399 5.353,-0.059 6.339,-2.088 l 5.557,-11.432 c 1.364,-0.323 10.068,-2.579 6.141,-4.928 L 29.52,13.35 c 3.108,1.713 -2.361,7.135 -8.354,5.1"
       id="SVGID_9_"
       inkscape:connector-curvature="0" />
    <path
       d="M 12.636,16.165 C 5.163,16.978 0.267,25.847 6.922,32.258 l 5.575,5.575 C 8.84,34.176 8.491,28.828 10.748,25.11 c 0.242,-0.415 0.542,-0.806 0.898,-1.162 2.232,-2.234 5.851,-2.234 8.083,0 1.025,1.024 1.579,2.341 1.663,3.683 0.564,-4.628 -3.975,-10.878 -8.747,-11.466 z"
       id="SVGID_12_"
       inkscape:connector-curvature="0" />
    <path
       d="m 12.497,37.833 3.139,3.138 c 1.048,-0.833 1.675,-3.275 0.05,-4.899 L 11.645,32.03 C 9.768,30.154 9.47,27.299 10.747,25.11 8.491,28.828 8.84,34.176 12.497,37.833"
       id="SVGID_15_"
       inkscape:connector-curvature="0" />
    <path
       d="M 20.055,6.421 29.409,11.51 20.741,0 C 19.555,1.351 18.98,4.03 20.055,6.421"
       id="SVGID_18_"
       inkscape:connector-curvature="0" />
    <path
       d="m 13.559,27.989 c 0,1.176 0.954,2.129 2.128,2.129 1.177,0 2.13,-0.953 2.13,-2.129 0,-1.175 -0.953,-2.129 -2.13,-2.129 -1.175,0 -2.128,0.954 -2.128,2.129"
       id="SVGID_21_"
       inkscape:connector-curvature="0" />
    <path
       d="m 0,17.698 c 0,1.175 0.955,2.129 2.13,2.129 1.176,0 2.128,-0.954 2.128,-2.129 0,-1.175 -0.952,-2.129 -2.128,-2.129 -1.175,0 -2.13,0.954 -2.13,2.129"
       id="SVGID_24_"
       inkscape:connector-curvature="0" />
  </defs>
  <sodipodi:namedview
     id="base"
     pagecolor="#ffffff"
     bordercolor="#666666"
     borderopacity="1.0"
     inkscape:pageopacity="0.0"
     inkscape:pageshadow="2"
     inkscape:zoom="9.0228106"
     inkscape:cx="26.971271"
     inkscape:cy="22.359755"
     inkscape:document-units="mm"
     inkscape:current-layer="layer1"
     showgrid="false"
     inkscape:window-width="2560"
     inkscape:window-height="1311"
     inkscape:window-x="0"
     inkscape:window-y="55"
     inkscape:window-maximized="1" />
  <metadata
     id="metadata4032">
    <rdf:RDF>
      <cc:Work
         rdf:about="">
        <dc:format>image/svg+xml</dc:format>
        <dc:type
           rdf:resource="http://purl.org/dc/dcmitype/StillImage" />
        <dc:title></dc:title>
      </cc:Work>
    </rdf:RDF>
  </metadata>
  <g
     inkscape:label="Layer 1"
     inkscape:groupmode="layer"
     id="layer1"
     transform="translate(-98.336315,-123.66482)">
    <g
       id="Layer_2"
       transform="matrix(0.26458333,0,0,0.26458333,98.336315,123.66482)">
	<g
   id="g4533">
		<defs
   id="defs4517">
			<path
   inkscape:connector-curvature="0"
   id="path4686"
   d="m 15.876,11.687 8.322,1.439 C 17.956,12.046 17.572,6.852 9.174,2.283 c -0.917,3.029 0.982,8.492 6.702,9.404" />

		</defs>

		<clipPath
   id="SVGID_4_">
			<use
   height="100%"
   width="100%"
   y="0"
   x="0"
   style="overflow:visible"
   xlink:href="#SVGID_3_"
   overflow="visible"
   id="use4519" />

		</clipPath>

		
			<linearGradient
   id="SVGID_5_"
   gradientUnits="userSpaceOnUse"
   x1="-70.017097"
   y1="369.00879"
   x2="-69.335503"
   y2="369.00879"
   gradientTransform="matrix(22.3552,0,0,-15.9007,1574.1997,5875.1929)">
			<stop
   offset="0"
   style="stop-color:#FFA600"
   id="stop4522" />

			<stop
   offset="0.34"
   style="stop-color:#FF9F00"
   id="stop4524" />

			<stop
   offset="0.69"
   style="stop-color:#FF7300"
   id="stop4526" />

			<stop
   offset="1"
   style="stop-color:#F52900"
   id="stop4528" />

		</linearGradient>

		<rect
   style="fill:url(#SVGID_5_)"
   x="8.257"
   y="2.283"
   clip-path="url(#SVGID_4_)"
   width="15.941"
   height="10.843"
   id="rect4531" />

	</g>

	<g
   id="g4552">
		<defs
   id="defs4536">
			<path
   inkscape:connector-curvature="0"
   id="path4698"
   d="m 9.174,2.283 c 8.398,4.568 8.782,9.763 15.024,10.843 3.133,0.542 0.304,5.888 -3.038,5.324 6.004,2.041 11.482,-3.399 8.349,-5.105 z" />

		</defs>

		<clipPath
   id="SVGID_7_">
			<use
   height="100%"
   width="100%"
   y="0"
   x="0"
   style="overflow:visible"
   xlink:href="#SVGID_6_"
   overflow="visible"
   id="use4538" />

		</clipPath>

		
			<linearGradient
   id="SVGID_8_"
   gradientUnits="userSpaceOnUse"
   x1="-69.773903"
   y1="364.2998"
   x2="-69.091797"
   y2="364.2998"
   gradientTransform="matrix(31.1579,0,0,-24.3694,2183.1819,8889.1582)">
			<stop
   offset="0"
   style="stop-color:#FFA600"
   id="stop4541" />

			<stop
   offset="0.34"
   style="stop-color:#FF9F00"
   id="stop4543" />

			<stop
   offset="0.69"
   style="stop-color:#FF7300"
   id="stop4545" />

			<stop
   offset="1"
   style="stop-color:#F52900"
   id="stop4547" />

		</linearGradient>

		<rect
   style="fill:url(#SVGID_8_)"
   x="9.1739998"
   y="2.283"
   clip-path="url(#SVGID_7_)"
   width="23.469"
   height="18.208"
   id="rect4550" />

	</g>

	<g
   id="g4569">
		<defs
   id="defs4555">
			<path
   inkscape:connector-curvature="0"
   id="path4710"
   d="m 21.166,18.45 c -0.001,0 -0.004,0 -0.005,0 -0.393,-0.067 -0.793,-0.214 -1.192,-0.463 -2.512,-1.563 -5.04,-2.069 -7.328,-1.822 4.775,0.584 9.316,6.838 8.752,11.467 0.099,1.581 -0.456,3.192 -1.663,4.399 l -2.755,2.755 c 2.125,1.399 5.353,-0.059 6.339,-2.088 l 5.557,-11.432 c 1.364,-0.323 10.068,-2.579 6.141,-4.928 L 29.52,13.35 c 3.108,1.713 -2.361,7.135 -8.354,5.1" />

		</defs>

		<clipPath
   id="SVGID_10_">
			<use
   height="100%"
   width="100%"
   y="0"
   x="0"
   style="overflow:visible"
   xlink:href="#SVGID_9_"
   overflow="visible"
   id="use4557" />

		</clipPath>

		
			<linearGradient
   id="SVGID_11_"
   gradientUnits="userSpaceOnUse"
   x1="-69.746597"
   y1="362.24899"
   x2="-69.0644"
   y2="362.24899"
   gradientTransform="matrix(34.2867,0,0,-32.2475,2404.0168,11706.409)">
			<stop
   offset="0"
   style="stop-color:#FFA600"
   id="stop4560" />

			<stop
   offset="0.34"
   style="stop-color:#FF9F00"
   id="stop4562" />

			<stop
   offset="1"
   style="stop-color:#FF6200"
   id="stop4564" />

		</linearGradient>

		<rect
   style="fill:url(#SVGID_11_)"
   x="12.641"
   y="13.35"
   clip-path="url(#SVGID_10_)"
   width="26.298"
   height="22.834999"
   id="rect4567" />

	</g>

	<g
   id="g4588">
		<defs
   id="defs4572">
			<path
   inkscape:connector-curvature="0"
   id="path4721"
   d="M 12.636,16.165 C 5.163,16.978 0.267,25.847 6.922,32.258 l 5.575,5.575 C 8.84,34.176 8.491,28.828 10.748,25.11 c 0.242,-0.415 0.542,-0.806 0.898,-1.162 2.232,-2.234 5.851,-2.234 8.083,0 1.025,1.024 1.579,2.341 1.663,3.683 0.564,-4.628 -3.975,-10.878 -8.747,-11.466 z" />

		</defs>

		<clipPath
   id="SVGID_13_">
			<use
   height="100%"
   width="100%"
   y="0"
   x="0"
   style="overflow:visible"
   xlink:href="#SVGID_12_"
   overflow="visible"
   id="use4574" />

		</clipPath>

		
			<linearGradient
   id="SVGID_14_"
   gradientUnits="userSpaceOnUse"
   x1="-69.793503"
   y1="362.39651"
   x2="-69.111397"
   y2="362.39651"
   gradientTransform="matrix(25.8911,0,0,-31.7769,1810.7987,11542.856)">
			<stop
   offset="0"
   style="stop-color:#FFA600"
   id="stop4577" />

			<stop
   offset="0.34"
   style="stop-color:#FF9F00"
   id="stop4579" />

			<stop
   offset="0.69"
   style="stop-color:#FF7300"
   id="stop4581" />

			<stop
   offset="1"
   style="stop-color:#F52900"
   id="stop4583" />

		</linearGradient>

		<rect
   style="fill:url(#SVGID_14_)"
   x="0.26699999"
   y="16.165001"
   clip-path="url(#SVGID_13_)"
   width="21.690001"
   height="21.667999"
   id="rect4586" />

	</g>

	<g
   id="g4607">
		<defs
   id="defs4591">
			<path
   inkscape:connector-curvature="0"
   id="path4733"
   d="m 12.497,37.833 3.139,3.138 c 1.048,-0.833 1.675,-3.275 0.05,-4.899 L 11.645,32.03 C 9.768,30.154 9.47,27.299 10.747,25.11 8.491,28.828 8.84,34.176 12.497,37.833" />

		</defs>

		<clipPath
   id="SVGID_16_">
			<use
   height="100%"
   width="100%"
   y="0"
   x="0"
   style="overflow:visible"
   xlink:href="#SVGID_15_"
   overflow="visible"
   id="use4593" />

		</clipPath>

		
			<linearGradient
   id="SVGID_17_"
   gradientUnits="userSpaceOnUse"
   x1="-53.276901"
   y1="341.07321"
   x2="-52.595001"
   y2="341.07321"
   gradientTransform="matrix(-8.0581,-7.2523,-7.5379,8.3754,2157.375,-3207.4316)">
			<stop
   offset="0"
   style="stop-color:#FFA600"
   id="stop4596" />

			<stop
   offset="0.34"
   style="stop-color:#FF9F00"
   id="stop4598" />

			<stop
   offset="0.69"
   style="stop-color:#FF7300"
   id="stop4600" />

			<stop
   offset="1"
   style="stop-color:#F52900"
   id="stop4602" />

		</linearGradient>

		<polygon
   style="fill:url(#SVGID_17_)"
   clip-path="url(#SVGID_16_)"
   points="0.604,33.874 12.438,20.725 25.198,32.209 13.364,45.358 "
   id="polygon4605" />

	</g>

	<g
   id="g4624">
		<defs
   id="defs4610">
			<path
   inkscape:connector-curvature="0"
   id="path4745"
   d="M 20.055,6.421 29.409,11.51 20.741,0 C 19.555,1.351 18.98,4.03 20.055,6.421" />

		</defs>

		<clipPath
   id="SVGID_19_">
			<use
   height="100%"
   width="100%"
   y="0"
   x="0"
   style="overflow:visible"
   xlink:href="#SVGID_18_"
   overflow="visible"
   id="use4612" />

		</clipPath>

		
			<linearGradient
   id="SVGID_20_"
   gradientUnits="userSpaceOnUse"
   x1="-70.763702"
   y1="368.16309"
   x2="-70.082298"
   y2="368.16309"
   gradientTransform="matrix(14.5536,0,0,-16.8792,1049.3582,6220.0347)">
			<stop
   offset="0"
   style="stop-color:#FFA600"
   id="stop4615" />

			<stop
   offset="0.34"
   style="stop-color:#FF9F00"
   id="stop4617" />

			<stop
   offset="1"
   style="stop-color:#FF6200"
   id="stop4619" />

		</linearGradient>

		<rect
   style="fill:url(#SVGID_20_)"
   y="0"
   x="18.98"
   clip-path="url(#SVGID_19_)"
   width="10.429"
   height="11.51"
   id="rect4622" />

	</g>

	<g
   id="g4641">
		<defs
   id="defs4627">
			<path
   inkscape:connector-curvature="0"
   id="path4756"
   d="m 13.559,27.989 c 0,1.176 0.954,2.129 2.128,2.129 1.177,0 2.13,-0.953 2.13,-2.129 0,-1.175 -0.953,-2.129 -2.13,-2.129 -1.175,0 -2.128,0.954 -2.128,2.129" />

		</defs>

		<clipPath
   id="SVGID_22_">
			<use
   height="100%"
   width="100%"
   y="0"
   x="0"
   style="overflow:visible"
   xlink:href="#SVGID_21_"
   overflow="visible"
   id="use4629" />

		</clipPath>

		
			<linearGradient
   id="SVGID_23_"
   gradientUnits="userSpaceOnUse"
   x1="-72.508797"
   y1="391.99121"
   x2="-71.826698"
   y2="391.99121"
   gradientTransform="matrix(6.2442,0,0,-6.2442,466.3162,2475.657)">
			<stop
   offset="0"
   style="stop-color:#FFA600"
   id="stop4632" />

			<stop
   offset="0.34"
   style="stop-color:#FF9F00"
   id="stop4634" />

			<stop
   offset="1"
   style="stop-color:#FF6200"
   id="stop4636" />

		</linearGradient>

		<rect
   style="fill:url(#SVGID_23_)"
   x="13.559"
   y="25.860001"
   clip-path="url(#SVGID_22_)"
   width="4.2579999"
   height="4.2579999"
   id="rect4639" />

	</g>

	<g
   id="g4658">
		<defs
   id="defs4644">
			<path
   inkscape:connector-curvature="0"
   id="path4767"
   d="m 0,17.698 c 0,1.175 0.955,2.129 2.13,2.129 1.176,0 2.128,-0.954 2.128,-2.129 0,-1.175 -0.952,-2.129 -2.128,-2.129 -1.175,0 -2.13,0.954 -2.13,2.129" />

		</defs>

		<clipPath
   id="SVGID_25_">
			<use
   height="100%"
   width="100%"
   y="0"
   x="0"
   style="overflow:visible"
   xlink:href="#SVGID_24_"
   overflow="visible"
   id="use4646" />

		</clipPath>

		
			<linearGradient
   id="SVGID_26_"
   gradientUnits="userSpaceOnUse"
   x1="-71.502899"
   y1="391.15921"
   x2="-70.821297"
   y2="391.15921"
   gradientTransform="matrix(6.2439,0,0,-6.2445,446.4556,2460.2852)">
			<stop
   offset="0"
   style="stop-color:#FFA600"
   id="stop4649" />

			<stop
   offset="0.34"
   style="stop-color:#FF9F00"
   id="stop4651" />

			<stop
   offset="1"
   style="stop-color:#FF6200"
   id="stop4653" />

		</linearGradient>

		<rect
   style="fill:url(#SVGID_26_)"
   x="0"
   y="15.569"
   clip-path="url(#SVGID_25_)"
   width="4.2579999"
   height="4.2579999"
   id="rect4656" />

	</g>

</g>
  </g>
</svg>
