<?xml version="1.0" encoding="UTF-8" standalone="no"?>
<!-- Generated by IcoMoon.io -->

<svg
   xmlns:dc="http://purl.org/dc/elements/1.1/"
   xmlns:cc="http://creativecommons.org/ns#"
   xmlns:rdf="http://www.w3.org/1999/02/22-rdf-syntax-ns#"
   xmlns:svg="http://www.w3.org/2000/svg"
   xmlns="http://www.w3.org/2000/svg"
   xmlns:sodipodi="http://sodipodi.sourceforge.net/DTD/sodipodi-0.dtd"
   xmlns:inkscape="http://www.inkscape.org/namespaces/inkscape"
   version="1.1"
   width="1024"
   height="1024"
   viewBox="0 0 1024 1024"
   id="svg7"
   sodipodi:docname="aws-s3-bucket.svg"
   inkscape:version="0.92.1 r15371">
  <metadata
     id="metadata13">
    <rdf:RDF>
      <cc:Work
         rdf:about="">
        <dc:format>image/svg+xml</dc:format>
        <dc:type
           rdf:resource="http://purl.org/dc/dcmitype/StillImage" />
      </cc:Work>
    </rdf:RDF>
  </metadata>
  <defs
     id="defs11" />
  <sodipodi:namedview
     pagecolor="#ffffff"
     bordercolor="#666666"
     borderopacity="1"
     objecttolerance="10"
     gridtolerance="10"
     guidetolerance="10"
     inkscape:pageopacity="0"
     inkscape:pageshadow="2"
     inkscape:window-width="3840"
     inkscape:window-height="2050"
     id="namedview9"
     showgrid="false"
     inkscape:zoom="0.23046875"
     inkscape:cx="512"
     inkscape:cy="1206.2373"
     inkscape:window-x="-12"
     inkscape:window-y="-12"
     inkscape:window-maximized="1"
     inkscape:current-layer="svg7" />
  <title
     id="title2" />
  <g
     id="icomoon-ignore" />
  <g
     id="g4496"
     transform="translate(-0.29498215,-0.26549693)">
    <path
       inkscape:connector-curvature="0"
       id="path4490"
       d="M 409.1661,248.75842 C 228.24911,237.59724 72.594779,198.8864 36.59271,156.10037 21.789803,138.50812 22.152334,125.22598 37.925762,107.26104 89.243861,48.812952 315.00129,8.2125543 554.52203,14.355948 c 209.3545,5.36967 367.73684,37.456369 422.58185,85.610907 22.17654,19.471275 26.48682,31.726695 16.87891,47.991625 -27.76373,47.00027 -175.65076,86.42038 -372.13245,99.194 -63.79182,4.14721 -159.74713,4.87175 -212.68424,1.60594 z"
       style="fill:#8c3123;fill-opacity:1;stroke:none;stroke-width:0;stroke-linecap:round;stroke-miterlimit:10;stroke-dasharray:none;stroke-dashoffset:0;stroke-opacity:1;paint-order:stroke fill markers" />
    <path
       inkscape:connector-curvature="0"
       id="path4492"
       d="M 399.62657,1006.3572 C 310.37972,997.71852 226.62577,974.75016 205.11522,953.01524 189.7783,937.5183 182.7501,911.30034 131.67409,679.05085 115.9294,607.45763 86.82158,475.11724 66.990037,384.9611 47.158493,294.80495 32.075881,221.58462 33.473122,222.24923 c 1.397241,0.66462 19.137047,9.54817 39.421793,19.74123 38.402505,19.2972 103.545595,37.80005 177.898305,50.52917 91.14802,15.60446 349.69218,19.2139 472.85886,6.60142 90.88638,-9.30692 204.77609,-39.59589 245.14282,-65.19571 11.3451,-7.19484 21.26336,-12.44561 22.0406,-11.66837 1.75946,1.75944 -127.62042,592.07469 -143.24666,653.58481 -16.52046,65.02977 -25.66951,82.35854 -48.91084,92.63928 -75.66744,33.47134 -261.92154,51.14974 -399.05143,37.87614 z m 0.26958,-231.80056 C 475.46728,758.54557 515.41734,704.2058 497.9243,641.21949 487.70877,604.43684 460.66705,587.61388 379.91653,567.8055 c -29.25511,-7.17638 -56.69401,-16.21492 -60.97533,-20.08563 -18.72698,-16.93095 3.98429,-40.29971 42.24984,-43.47299 29.00196,-2.40506 56.91751,4.10277 90.40992,21.07689 37.74842,19.1311 37.83633,19.07031 37.83633,-26.17262 v -38.88276 l -22.77966,-6.78579 c -61.11876,-18.20657 -128.70785,-19.04266 -173.85588,-2.15061 -97.46309,36.46561 -96.18395,154.19116 2.01711,185.64382 15.16217,4.85626 42.56871,12.02061 60.90342,15.92078 53.28017,11.33372 68.99196,31.07302 41.19344,51.75283 -9.9515,7.40313 -18.50109,9.11329 -45.55932,9.11329 -37.89837,0 -70.58315,-9.24715 -100.94304,-28.55879 -10.94791,-6.96385 -22.24574,-12.66155 -25.10628,-12.66155 -3.7695,0 -4.85918,11.56773 -3.95912,42.02887 l 1.24187,42.02882 22.98523,7.93474 c 48.16443,16.62685 105.5548,20.35387 154.32109,10.02184 z m 341.20216,-7.1926 c 32.13316,-14.84089 50.83786,-35.01794 59.23271,-63.89517 12.06567,-41.5045 -0.36708,-78.08594 -32.01154,-94.18803 -9.00556,-4.58243 -17.24125,-8.8738 -18.30157,-9.53637 -1.06032,-0.66258 5.53763,-7.35835 14.66207,-14.8795 18.99225,-15.65501 32.59106,-42.20541 32.72982,-63.90183 0.13191,-20.62089 -14.37479,-48.31966 -31.29795,-59.75981 -35.55363,-24.03442 -115.52013,-29.34802 -182.30168,-12.11356 l -29.28814,7.55846 v 38.52334 c 0,21.18784 1.70961,38.52335 3.79909,38.52335 2.08948,0 15.26914,-5.28772 29.28813,-11.75048 21.66901,-9.98944 31.43416,-11.7777 65.15764,-11.9322 43.42858,-0.19896 57.95853,6.33016 57.95853,26.04397 0,19.02699 -13.02189,28.30451 -45.62011,32.50226 -16.67167,2.14685 -33.72904,3.96725 -37.90531,4.04533 -6.49494,0.12143 -7.59322,4.53503 -7.59322,30.51484 v 30.37289 h 29.72542 c 48.9442,0 65.73221,9.7496 65.73221,38.17389 0,16.39632 -17.87952,34.47982 -37.78265,38.21369 -26.0963,4.89567 -68.24062,-0.86646 -94.59977,-12.93408 -37.20244,-17.03185 -36.83792,-17.30083 -36.83792,27.1833 v 38.56904 l 27.11864,6.89443 c 14.91526,3.79192 31.02373,7.8008 35.79661,8.90854 4.77288,1.10778 31.13221,1.53522 58.57627,0.94989 42.9096,-0.91518 53.24076,-2.60799 73.76272,-12.08619 z"
       style="fill:#e05243;fill-opacity:1;stroke:none;stroke-width:0;stroke-linecap:round;stroke-miterlimit:10;stroke-dasharray:none;stroke-dashoffset:0;stroke-opacity:1;paint-order:stroke fill markers" />
  </g>
</svg>
